<svg width="24" height="24" viewBox="0 0 24 24" fill="none" xmlns="http://www.w3.org/2000/svg">
<path d="M6.91936 11.8716C6.91936 10.977 6.91936 10.1569 6.91936 9.41142C6.91936 8.96411 6.99193 8.88957 7.35483 8.81501C7.93547 8.66591 8.51612 8.59136 9.16934 8.44226C9.16934 8.29316 9.16934 8.2186 9.16934 8.0695C9.16934 6.57848 9.16934 5.01289 9.16934 3.52187C9.16934 3.14911 9.24191 3 9.60481 3C10.9113 3 12.2177 3 13.5242 3C13.8871 3 13.8871 3.07456 13.8871 3.44731C13.8871 4.64013 13.8871 5.9075 13.8871 7.10032C13.8871 7.17487 13.8871 7.32397 13.8871 7.47308C14.0322 7.47308 14.1048 7.47308 14.1774 7.47308C15.0484 7.47308 15.9193 7.47308 16.7903 7.47308C17.2258 7.47308 17.2258 7.54764 17.2258 7.99495C17.2258 8.96411 17.2258 9.93328 17.2258 10.977C17.2258 11.2007 17.2984 11.3498 17.5161 11.4243C18.3145 11.648 19.1129 11.9461 19.9113 12.2444C20.3468 12.3935 20.3468 12.3935 20.3468 12.9153C20.3468 15.301 20.3468 17.6121 20.3468 19.9977C20.3468 20.1468 20.3468 20.2214 20.3468 20.3705C20.4919 20.3705 20.6371 20.2959 20.7822 20.3705C20.8548 20.445 21 20.5941 21 20.6687C21 20.7432 20.8548 20.8923 20.7822 20.9669C20.7096 21.0414 20.6371 20.9669 20.5645 20.9669C14.9033 20.9669 9.24198 20.9669 3.50812 20.9669C3.29038 20.9669 3.07258 21.0414 3 20.6687C3 20.445 3.14521 20.3705 3.50812 20.3705C3.5807 20.3705 3.58064 20.3705 3.72581 20.3705C3.72581 20.2214 3.72581 20.1468 3.72581 19.9977C3.72581 17.5375 3.72581 15.0028 3.72581 12.5426C3.72581 12.0953 3.79844 12.0207 4.23392 12.0207C5.03231 12.0207 5.83064 12.0207 6.62903 12.0207C6.70161 11.8716 6.7742 11.8716 6.91936 11.8716ZM11.0564 20.2959C11.7096 20.2959 12.3629 20.2959 13.0161 20.2959C13.379 20.2959 13.379 20.2959 13.379 19.9232C13.379 14.63 13.379 9.33687 13.379 3.96918C13.379 3.89463 13.379 3.74551 13.379 3.67096C12.1452 3.67096 10.9839 3.67096 9.75002 3.67096C9.75002 5.23653 9.75002 6.80212 9.75002 8.3677C10.0403 8.29315 10.3306 8.29314 10.5484 8.21859C10.9839 8.14404 11.0564 8.2186 11.0564 8.6659C11.0564 12.3935 11.0564 16.1956 11.0564 19.9232C11.0564 19.9977 11.0564 20.0723 11.0564 20.2959ZM13.9596 8.0695C13.9596 8.14405 13.9596 8.2186 13.9596 8.29315C13.9596 12.1698 13.9596 16.0465 13.9596 19.9232C13.9596 20.1468 14.0323 20.2214 14.1774 20.2214C14.9758 20.2214 15.7016 20.2214 16.5 20.2214C16.7903 20.2214 16.7903 20.1468 16.7903 19.8486C16.7903 16.0465 16.7903 12.1698 16.7903 8.3677C16.7903 8.29315 16.7903 8.14405 16.7903 8.0695C15.7742 8.0695 14.9032 8.0695 13.9596 8.0695ZM7.50004 20.2214C8.51617 20.2214 9.53226 20.2214 10.5484 20.2214C10.5484 16.4192 10.5484 12.6171 10.5484 8.81501C10.4758 8.81501 10.4032 8.81501 10.3306 8.81501C9.45965 8.96412 8.58868 9.18776 7.7903 9.33686C7.57255 9.41141 7.50004 9.48596 7.50004 9.70962C7.50004 13.0644 7.50004 16.4938 7.50004 19.8486C7.50004 19.9977 7.50004 20.1468 7.50004 20.2214ZM4.30648 20.2214C5.17745 20.2214 6.0484 20.2214 6.91936 20.2214C6.91936 17.6121 6.91936 15.0773 6.91936 12.5426C6.0484 12.5426 5.17745 12.5426 4.30648 12.5426C4.30648 15.1519 4.30648 17.6866 4.30648 20.2214ZM17.2984 11.9462C17.2984 14.7046 17.2984 17.463 17.2984 20.2214C18.1694 20.2214 18.9677 20.2214 19.7661 20.2214C19.7661 17.7612 19.7661 15.2264 19.7661 12.7662C18.9677 12.468 18.1694 12.2444 17.2984 11.9462Z" fill="#F5AE22"/>
<path d="M12.5081 5.16219C12.5081 5.23674 12.5081 5.38586 12.5081 5.46041C12.4355 5.53496 12.363 5.68406 12.2178 5.68406C12.1452 5.68406 12.0001 5.53496 11.9275 5.46041C11.8549 5.23676 11.8549 5.01308 11.9275 4.78943C11.9275 4.71488 12.0726 4.49124 12.1452 4.56579C12.2178 4.56579 12.3629 4.71488 12.4355 4.86399C12.5081 4.86399 12.5081 5.01308 12.5081 5.16219Z" fill="#F5AE22"/>
<path d="M12.5081 11.4988C12.5081 11.5733 12.5081 11.7224 12.5081 11.797C12.4355 11.9461 12.363 12.0952 12.2178 12.0952C12.1452 12.0952 12.0001 11.9461 11.9275 11.8715C11.8549 11.6479 11.8549 11.4242 11.9275 11.2006C11.9275 11.126 12.0726 10.9024 12.1452 10.9769C12.2178 10.9769 12.3629 11.126 12.4355 11.2751C12.5081 11.2751 12.5081 11.4242 12.5081 11.4988Z" fill="#F5AE22"/>
<path d="M12.5083 13.6607C12.5083 14.108 12.4358 14.2571 12.2181 14.2571C11.9278 14.2571 11.9277 13.9589 11.9277 13.6607C11.9277 13.5862 11.9277 13.4371 11.9277 13.3625C11.9277 13.1388 12.0003 12.9897 12.2181 12.9897C12.4358 12.9897 12.5083 13.1388 12.5083 13.3625C12.5083 13.5116 12.5083 13.5862 12.5083 13.6607Z" fill="#F5AE22"/>
<path d="M11.129 5.16204C11.129 5.23659 11.129 5.38571 11.129 5.46026C11.0564 5.53481 10.9838 5.6839 10.9112 5.6839C10.8386 5.6839 10.6208 5.53481 10.6208 5.46026C10.5483 5.2366 10.5483 4.9384 10.6208 4.71475C10.6208 4.64019 10.766 4.41653 10.8386 4.49108C10.9112 4.49108 11.0564 4.64018 11.129 4.78928C11.129 4.86383 11.129 5.01293 11.129 5.16204Z" fill="#F5AE22"/>
<path d="M11.9997 9.33664C11.9997 9.26208 11.9997 9.11299 11.9997 9.03843C12.0723 8.88933 12.1449 8.74023 12.2901 8.74023C12.4352 8.74023 12.5804 8.88933 12.5804 9.03843C12.5804 9.26209 12.5804 9.41118 12.5804 9.63484C12.5804 9.85849 12.5078 9.93306 12.2901 9.93306C12.1449 9.93306 11.9997 9.78394 11.9997 9.63484C11.9272 9.56028 11.9272 9.48574 11.9997 9.33664Z" fill="#F5AE22"/>
<path d="M11.1292 7.24957C11.1292 7.32412 11.1292 7.47322 11.1292 7.54777C11.0567 7.62232 10.9841 7.77142 10.8389 7.77142C10.7663 7.77142 10.6211 7.62232 10.6211 7.54777C10.6211 7.32412 10.5485 7.02591 10.6211 6.80226C10.6211 6.72771 10.7663 6.57861 10.9115 6.57861C10.984 6.57861 11.1292 6.72771 11.1292 6.87681C11.1292 7.02592 11.1292 7.17502 11.1292 7.24957Z" fill="#F5AE22"/>
<path d="M11.9997 7.24926C11.9997 7.1747 11.9997 7.02561 11.9997 6.95106C12.0723 6.80195 12.1449 6.65283 12.2901 6.65283C12.3627 6.65283 12.5078 6.80195 12.5804 6.95106C12.653 7.17471 12.5804 7.3238 12.5804 7.54746C12.5804 7.77111 12.5078 7.84566 12.2901 7.84566C12.1449 7.84566 11.9997 7.69656 11.9997 7.54746C11.9272 7.47291 11.9272 7.32381 11.9997 7.24926Z" fill="#F5AE22"/>
<path d="M14.9027 16.1954C14.9027 16.3445 14.9027 16.4191 14.9027 16.5682C14.8301 16.6427 14.7575 16.7918 14.6124 16.7918C14.5398 16.7918 14.3946 16.6427 14.322 16.5682C14.2494 16.3445 14.2494 16.1209 14.322 15.8972C14.322 15.7481 14.4672 15.599 14.6124 15.599C14.7575 15.5244 14.9027 15.6736 14.9027 15.8972C14.9753 15.9718 14.9027 16.0463 14.9027 16.1954Z" fill="#F5AE22"/>
<path d="M14.9029 14.0338C14.9029 14.1083 14.9029 14.1829 14.9029 14.2574C14.9029 14.4811 14.8303 14.6302 14.6126 14.6302C14.3949 14.6302 14.3223 14.4811 14.3223 14.2574C14.3223 14.1083 14.3223 13.8847 14.3223 13.7355C14.3223 13.5119 14.3949 13.3628 14.6126 13.3628C14.8303 13.3628 14.9029 13.5119 14.9029 13.7355C14.9755 13.8847 14.9029 13.9592 14.9029 14.0338Z" fill="#F5AE22"/>
<path d="M14.9029 9.78425C14.9029 9.8588 14.9029 10.0079 14.9029 10.0079C14.8304 10.157 14.7578 10.3061 14.6126 10.3061C14.4674 10.3807 14.3223 10.157 14.3223 10.0079C14.3223 9.85879 14.3223 9.63515 14.3223 9.48605C14.3223 9.2624 14.3949 9.1133 14.6126 9.18785C14.7578 9.18785 14.8304 9.33695 14.9029 9.48605C14.9755 9.5606 14.9029 9.7097 14.9029 9.78425Z" fill="#F5AE22"/>
<path d="M16.2829 9.78439C16.2829 9.93349 16.2829 10.008 16.2829 10.1571C16.2103 10.3062 16.1377 10.4553 15.9925 10.3808C15.9199 10.3808 15.7748 10.2317 15.7022 10.0826C15.6296 9.85894 15.7022 9.70984 15.7022 9.48619C15.7022 9.26254 15.7748 9.18799 15.9925 9.18799C16.2103 9.18799 16.2829 9.33709 16.2829 9.48619C16.3554 9.56074 16.2829 9.63529 16.2829 9.78439Z" fill="#F5AE22"/>
<path d="M14.9033 11.8718C14.9033 12.0209 14.9033 12.0954 14.9033 12.2445C14.8307 12.3191 14.7581 12.4682 14.6129 12.4682C14.5404 12.4682 14.3953 12.3191 14.3953 12.2445C14.3227 12.0209 14.3227 11.7227 14.3953 11.499C14.3953 11.4245 14.5403 11.2754 14.6855 11.2754C14.7581 11.2754 14.9033 11.4245 14.9758 11.499C14.9758 11.6481 14.9033 11.7972 14.9033 11.8718Z" fill="#F5AE22"/>
<path d="M15.7737 14.0334C15.7737 13.9589 15.7737 13.8098 15.7737 13.7352C15.8463 13.5861 15.9189 13.5116 15.9915 13.437C16.0641 13.437 16.2093 13.5861 16.2819 13.6607C16.3544 13.8843 16.2819 14.108 16.2819 14.3316C16.2819 14.4807 16.1367 14.7044 15.9915 14.6298C15.9189 14.6298 15.7738 14.4062 15.7012 14.3316C15.7012 14.2571 15.7737 14.108 15.7737 14.0334Z" fill="#F5AE22"/>
<path d="M15.7737 11.8718C15.7737 11.7972 15.7737 11.6481 15.7737 11.5736C15.8463 11.4245 15.9189 11.2754 15.9915 11.2754C16.0641 11.2754 16.2093 11.4245 16.2819 11.499C16.3544 11.7227 16.3544 11.9464 16.2819 12.17C16.2819 12.3191 16.1367 12.3937 15.9915 12.4682C15.8464 12.4682 15.7012 12.3191 15.7012 12.17C15.7738 12.0955 15.7737 12.0209 15.7737 11.8718Z" fill="#F5AE22"/>
<path d="M8.00811 12.8406C8.00811 12.766 8.00811 12.6169 8.00811 12.5424C8.08069 12.3933 8.15331 12.2441 8.22589 12.2441C8.29847 12.2441 8.44356 12.3933 8.51614 12.4678C8.58872 12.6915 8.58872 12.9151 8.51614 13.1388C8.51614 13.2879 8.37105 13.437 8.22589 13.437C8.15331 13.437 8.00813 13.2879 7.93555 13.1388C8.00813 13.0642 8.00811 12.9151 8.00811 12.8406Z" fill="#F5AE22"/>
<path d="M8.00811 10.7531C8.00811 10.6786 8.00811 10.5295 8.00811 10.4549C8.08069 10.3058 8.15329 10.2313 8.29845 10.1567C8.37103 10.1567 8.51614 10.3058 8.51614 10.3804C8.58872 10.604 8.58872 10.8277 8.51614 11.0514C8.51614 11.2005 8.37105 11.3496 8.22589 11.3496C8.08073 11.3496 7.93555 11.2005 7.93555 11.0514C8.00813 10.9768 8.00811 10.9022 8.00811 10.7531Z" fill="#F5AE22"/>
<path d="M8.00811 14.9279C8.00811 14.8534 8.00811 14.7043 8.00811 14.6297C8.08069 14.4806 8.15331 14.3315 8.22589 14.3315C8.29847 14.3315 8.44356 14.4806 8.51614 14.6297C8.58872 14.8534 8.51614 15.077 8.51614 15.3007C8.51614 15.5244 8.37105 15.6735 8.22589 15.5989C8.15331 15.5989 8.00813 15.3753 7.93555 15.3007C8.00813 15.1516 8.00811 15.0025 8.00811 14.9279Z" fill="#F5AE22"/>
<path d="M9.96774 10.8278C9.96774 10.9024 9.96774 11.0515 9.96774 11.126C9.89516 11.2751 9.82263 11.4243 9.75005 11.4243C9.67747 11.4243 9.53229 11.2751 9.45971 11.126C9.38713 10.9024 9.38713 10.6787 9.45971 10.4551C9.45971 10.3805 9.60489 10.2314 9.75005 10.2314C9.82263 10.2314 9.96774 10.3805 9.96774 10.5296C9.96774 10.5296 9.96774 10.6787 9.96774 10.8278Z" fill="#F5AE22"/>
<path d="M9.96774 12.8406C9.96774 12.9151 9.96774 13.0642 9.96774 13.1388C9.89516 13.2879 9.82263 13.3624 9.75005 13.437C9.67747 13.437 9.53229 13.2879 9.45971 13.2133C9.38713 12.9897 9.38713 12.766 9.45971 12.5424C9.45971 12.4678 9.60491 12.2442 9.67749 12.3187C9.75007 12.3187 9.89516 12.4678 9.96774 12.6169C9.96774 12.6169 9.96774 12.766 9.96774 12.8406Z" fill="#F5AE22"/>
<path d="M9.96803 14.9283C9.96803 15.0028 9.96803 15.1519 9.96803 15.2265C9.89545 15.3756 9.82294 15.5247 9.67778 15.5247C9.6052 15.5247 9.46002 15.3756 9.38744 15.2265C9.31486 15.0028 9.31486 14.7792 9.38744 14.5555C9.38744 14.4064 9.53255 14.2573 9.60513 14.2573C9.75029 14.2573 9.89547 14.3319 9.89547 14.5555C9.96805 14.7046 9.96803 14.8537 9.96803 14.9283Z" fill="#F5AE22"/>
<path d="M9.96774 17.0159C9.96774 17.0904 9.96774 17.2395 9.96774 17.3141C9.89516 17.4632 9.82263 17.6123 9.75005 17.6123C9.67747 17.6123 9.53229 17.4632 9.45971 17.3886C9.38713 17.165 9.38713 16.9413 9.45971 16.7176C9.45971 16.5685 9.60489 16.4194 9.75005 16.4194C9.82263 16.4194 9.96774 16.5685 9.96774 16.7176C9.96774 16.7922 9.96774 16.8668 9.96774 17.0159Z" fill="#F5AE22"/>
<path d="M5.03223 16.4192C5.03223 16.2701 5.03223 16.1955 5.03223 16.0464C5.10481 15.8973 5.17741 15.8228 5.32257 15.8228C5.39515 15.8228 5.54024 15.9718 5.61282 16.0464C5.6854 16.2701 5.61282 16.4937 5.61282 16.7174C5.61282 16.8665 5.46773 17.0901 5.32257 17.0156C5.24999 17.0156 5.10479 16.7919 5.10479 16.6428C5.03221 16.5683 5.03223 16.4937 5.03223 16.4192Z" fill="#F5AE22"/>
<path d="M5.03223 13.8845C5.03223 13.8099 5.03223 13.6608 5.03223 13.5863C5.10481 13.4372 5.17741 13.2881 5.32257 13.2881C5.39515 13.2881 5.54024 13.4372 5.61282 13.5863C5.6854 13.8099 5.61282 14.0336 5.61282 14.2572C5.61282 14.4063 5.54031 14.5554 5.32257 14.5554C5.17741 14.5554 5.10481 14.4063 5.03223 14.2572C5.03223 14.0336 5.03223 13.959 5.03223 13.8845Z" fill="#F5AE22"/>
<path d="M18.2415 14.1827C18.2415 14.2572 18.2415 14.4063 18.2415 14.4809C18.1689 14.5554 18.0963 14.7045 17.9511 14.7045C17.8785 14.7045 17.7334 14.5554 17.7334 14.4809C17.7334 14.2572 17.6608 13.959 17.7334 13.7354C17.7334 13.6608 17.8786 13.5117 18.0238 13.5117C18.0964 13.5117 18.2415 13.6608 18.2415 13.8099C18.2415 13.959 18.2415 14.1081 18.2415 14.1827Z" fill="#F5AE22"/>
<path d="M19.4026 16.7172C19.4026 16.7917 19.4026 16.9408 19.4026 17.0154C19.33 17.1645 19.2575 17.3136 19.1124 17.3136C19.0398 17.3136 18.8946 17.1645 18.822 17.0899C18.7494 16.8663 18.7494 16.6426 18.822 16.419C18.822 16.3444 19.0398 16.1953 19.1124 16.1953C19.1849 16.1953 19.33 16.3444 19.33 16.4935C19.4752 16.4935 19.4026 16.5681 19.4026 16.7172Z" fill="#F5AE22"/>
<path d="M19.4033 14.1828C19.4033 14.3319 19.4033 14.4065 19.4033 14.5556C19.3307 14.6301 19.2582 14.7793 19.113 14.7793C19.0405 14.7793 18.8953 14.6301 18.8953 14.5556C18.8227 14.3319 18.8227 14.0337 18.8953 13.8101C18.8953 13.7355 19.113 13.5864 19.1856 13.5864C19.2582 13.5864 19.4033 13.7355 19.4033 13.8846C19.4759 13.9592 19.4033 14.1083 19.4033 14.1828Z" fill="#F5AE22"/>
</svg>
