<svg width="24" height="24" viewBox="0 0 24 24" fill="none" xmlns="http://www.w3.org/2000/svg">
<path d="M13.4049 8.75186C13.3289 7.24701 12.7213 5.74217 11.2783 4.76402C9.0758 3.18394 5.886 3.93636 4.59489 6.64508C4.51894 6.87081 4.36706 7.02129 4.13922 7.02129C3.98732 7.02129 3.75948 6.87081 3.75948 6.64508C3.75948 6.4946 3.75946 6.34411 3.83541 6.26887C4.44299 4.98975 5.35439 4.08684 6.56956 3.4849C8.77205 2.50675 11.2024 3.03343 12.8732 4.83925C13.7846 5.89264 14.3162 7.09653 14.3922 8.52614C14.5441 10.332 14.0124 11.9121 12.9492 13.3417C12.4935 13.8684 12.1137 14.3951 11.658 14.8465C10.7467 15.7494 10.1391 16.8028 9.6834 18.0066C9.45556 18.6838 9.15178 19.2858 8.69609 19.8125C7.32903 21.4678 4.82274 21.3926 3.60757 19.5868C3.15189 18.9848 3 18.3076 3 17.5552C3 17.2542 3.22783 17.0285 3.45567 17.0285C3.68351 17.0285 3.91138 17.2542 3.91138 17.5552C3.91138 18.6086 4.51894 19.4363 5.35437 19.8125C6.18979 20.1887 7.25308 19.963 7.93661 19.2105C8.2404 18.8343 8.46825 18.4581 8.69609 18.0066C9.07583 17.179 9.3796 16.3513 9.91124 15.5237C10.3669 14.8465 10.8986 14.3198 11.4302 13.7179C12.0378 12.9654 12.7213 12.2882 13.1011 11.3853C13.253 10.7834 13.4049 9.95573 13.4049 8.75186Z" fill="#F5AE22"/>
<path d="M6.64537 7.77319C7.25295 7.62271 7.78459 7.62271 8.31623 7.77319C9.53139 8.14941 10.5187 9.27803 10.6706 10.6324C10.8225 11.761 10.5187 12.8144 9.75921 13.7174C9.37947 14.1688 8.84784 14.3945 8.24025 14.545C7.55672 14.6955 7.177 15.0717 7.02511 15.8241C6.79726 16.727 6.1897 17.2537 5.43022 17.2537C4.82264 17.2537 4.29096 16.8775 4.06312 16.2756C3.75933 15.6736 3.83531 14.9965 4.291 14.4698C4.4429 14.244 4.67073 14.244 4.89858 14.3945C5.12642 14.545 5.1264 14.846 4.9745 15.0717C4.74666 15.3727 4.74668 15.6736 4.89858 15.9746C5.05047 16.2003 5.27829 16.3508 5.58208 16.2756C5.88587 16.2003 6.03777 16.0498 6.11372 15.7489C6.18967 15.5231 6.26561 15.2974 6.34156 15.0717C6.5694 14.3945 7.02512 13.9431 7.70865 13.7926C7.86055 13.7173 8.01243 13.7173 8.16432 13.6421C9.0757 13.4164 9.53137 12.8144 9.75921 11.9115C10.063 10.4819 9.30353 9.12755 8.01242 8.75133C7.55673 8.60085 7.02512 8.67612 6.56944 8.8266C6.49349 8.90185 6.41753 8.90184 6.41753 9.05232C6.41753 9.42853 6.49345 9.80472 6.7213 10.1057C6.7213 10.1809 6.8732 10.181 6.8732 10.181C7.48078 10.181 8.08838 10.6324 8.16432 11.3096C8.24027 11.9868 7.86054 12.664 7.17701 12.8144C7.02511 12.8144 6.87319 12.8144 6.7213 12.7392C6.5694 12.6639 6.49346 12.5135 6.49346 12.2877C6.49346 12.062 6.56943 11.9115 6.79727 11.9115C6.87322 11.9115 6.94916 11.9115 7.02511 11.8363C7.177 11.7611 7.32889 11.6105 7.25294 11.3848C7.17699 11.2343 7.0251 11.0839 6.8732 11.1591C6.41751 11.3096 6.34158 11.2343 6.03779 10.8581C4.82263 8.90181 5.65806 6.3436 7.70865 5.66642C9.45545 5.06448 11.3541 6.3436 11.6579 8.2999C11.6579 8.45038 11.7339 8.60085 11.7339 8.75133C11.7339 9.0523 11.582 9.27804 11.3541 9.27804C11.1263 9.27804 10.8984 9.12757 10.8984 8.8266C10.8225 8.22467 10.6706 7.62272 10.2149 7.17127C9.15165 6.04263 7.40484 6.26834 6.64537 7.6227C6.72131 7.69794 6.72131 7.77319 6.64537 7.77319Z" fill="#F5AE22"/>
<path d="M18.6454 11.8364C17.9618 11.8364 17.3543 11.8364 16.6708 11.8364C16.5948 11.8364 16.5189 11.8364 16.4429 11.7611C16.367 11.6859 16.291 11.5354 16.291 11.4602C16.291 11.3849 16.367 11.3096 16.4429 11.2344C16.5189 11.1592 16.5948 11.1592 16.6708 11.1592C17.9619 11.1592 19.253 11.1592 20.5441 11.1592C20.62 11.1592 20.62 11.1592 20.696 11.1592C20.8479 11.1592 20.9998 11.3097 20.9998 11.4602C20.9998 11.6107 20.8479 11.7611 20.696 11.7611C20.0125 11.8364 19.3289 11.8364 18.6454 11.8364Z" fill="#F5AE22"/>
<path d="M15.6815 13.6421C15.8334 13.6421 15.9853 13.7173 16.1372 13.7926C17.1245 14.0936 18.1118 14.3193 19.0992 14.6202C19.327 14.6955 19.4029 14.846 19.4029 14.9964C19.327 15.1469 19.1751 15.2974 19.0232 15.2222C18.0359 14.9212 17.0486 14.6202 16.0612 14.3945C15.9093 14.3193 15.7574 14.3193 15.6055 14.244C15.4536 14.1688 15.3777 14.0936 15.4536 13.9431C15.3777 13.7174 15.5296 13.6421 15.6815 13.6421Z" fill="#F5AE22"/>
<path d="M16.9737 8.97719C16.8218 8.97719 16.7459 8.90196 16.6699 8.75147C16.6699 8.60099 16.7459 8.45051 16.8978 8.37526C17.2015 8.30002 17.5053 8.14956 17.8851 8.07432C18.2648 7.99908 18.6445 7.84858 19.0243 7.77333C19.2521 7.69809 19.404 7.77333 19.404 7.99905C19.48 8.14954 19.3281 8.30002 19.1762 8.37526C18.4927 8.60099 17.8091 8.75147 17.1256 8.97719C17.0496 8.97719 16.9737 8.97719 16.9737 8.97719Z" fill="#F5AE22"/>
</svg>
