<svg width="24" height="24" viewBox="0 0 24 24" fill="none" xmlns="http://www.w3.org/2000/svg">
<path d="M17.9249 10.35H6.07498C4.34998 10.35 3 9.00001 3 7.27501V6.075C3 4.35 4.34998 3 6.07498 3H17.9249C19.6499 3 21 4.35 21 6.075V7.27501C21 9.00001 19.6499 10.35 17.9249 10.35Z" fill="#F5AE22"/>
<path d="M6.67535 7.9499C7.37952 7.9499 7.95041 7.37907 7.95041 6.67491C7.95041 5.97075 7.37952 5.3999 6.67535 5.3999C5.97119 5.3999 5.40039 5.97075 5.40039 6.67491C5.40039 7.37907 5.97119 7.9499 6.67535 7.9499Z" fill="#F5F6F6"/>
<path d="M10.275 7.9499C10.9791 7.9499 11.5499 7.37907 11.5499 6.67491C11.5499 5.97075 10.9791 5.3999 10.275 5.3999C9.5708 5.3999 9 5.97075 9 6.67491C9 7.37907 9.5708 7.9499 10.275 7.9499Z" fill="#F5F6F6"/>
<path d="M13.8747 7.9499C14.5788 7.9499 15.1496 7.37907 15.1496 6.67491C15.1496 5.97075 14.5788 5.3999 13.8747 5.3999C13.1705 5.3999 12.5996 5.97075 12.5996 6.67491C12.5996 7.37907 13.1705 7.9499 13.8747 7.9499Z" fill="#F5F6F6"/>
<path d="M17.4 7.9499C18.1041 7.9499 18.6749 7.37907 18.6749 6.67491C18.6749 5.97075 18.1041 5.3999 17.4 5.3999C16.6958 5.3999 16.125 5.97075 16.125 6.67491C16.125 7.37907 16.6958 7.9499 17.4 7.9499Z" fill="#F5F6F6"/>
<path d="M7.7998 17.3998L8.99988 16.2748L11.0248 18.4498L15.5248 13.7998L16.7998 14.9998L11.0998 20.9998L7.7998 17.3998Z" fill="#F5AE22"/>
</svg>
