<svg width="24" height="24" viewBox="0 0 24 24" fill="none" xmlns="http://www.w3.org/2000/svg">
<path d="M10.0047 2.39901L21.5905 13.9574C21.7219 14.0879 21.8259 14.2434 21.8962 14.4147C21.9666 14.586 22.0018 14.7696 21.9999 14.9547V18.7942C22.0013 18.9792 21.9658 19.1627 21.8955 19.3339C21.8252 19.5051 21.7215 19.6606 21.5905 19.7915L19.8027 21.5766C19.6732 21.7105 19.518 21.817 19.3464 21.8898C19.1748 21.9625 18.9903 22 18.8039 22C18.6175 22 18.433 21.9625 18.2614 21.8898C18.0898 21.817 17.9346 21.7105 17.8051 21.5766L14.2894 18.0064C14.1553 17.8771 14.0487 17.7221 13.9758 17.5508C13.903 17.3795 13.8654 17.1952 13.8654 17.0091C13.8654 16.8229 13.903 16.6387 13.9758 16.4674C14.0487 16.296 14.1553 16.1411 14.2894 16.0118L14.9187 15.3835C15.0541 15.255 15.1618 15.1003 15.2355 14.9288C15.3091 14.7574 15.3472 14.5728 15.3472 14.3862C15.3472 14.1997 15.3091 14.0151 15.2355 13.8437C15.1618 13.6722 15.0541 13.5175 14.9187 13.389L10.5041 8.981C10.3746 8.84709 10.2194 8.7406 10.0478 8.66786C9.87624 8.59512 9.69177 8.55763 9.50535 8.55763C9.31893 8.55763 9.1344 8.59512 8.96281 8.66786C8.79121 8.7406 8.63606 8.84709 8.50658 8.981L7.87735 9.60929C7.74787 9.7432 7.59266 9.84972 7.42106 9.92246C7.24947 9.9952 7.065 10.0327 6.87858 10.0327C6.69216 10.0327 6.50763 9.9952 6.33603 9.92246C6.16444 9.84972 6.00929 9.7432 5.87981 9.60929L2.42404 6.21856C2.28992 6.08927 2.18325 5.93432 2.1104 5.76299C2.03755 5.59165 2 5.40742 2 5.22128C2 5.03514 2.03755 4.85092 2.1104 4.67958C2.18325 4.50824 2.28992 4.3533 2.42404 4.22401L4.25181 2.40896C4.38251 2.27767 4.5382 2.17387 4.70974 2.10364C4.88128 2.03341 5.06519 1.99818 5.25058 2.00007H9.0459C9.40516 2.00415 9.74887 2.14716 10.0047 2.39901Z" fill="#F5AE22"/>
</svg>
