<svg width="24" height="24" viewBox="0 0 24 24" fill="none" xmlns="http://www.w3.org/2000/svg">
<path d="M14.0899 13.4241L21.7343 5.67393C21.6131 5.47219 21.4426 5.30451 21.2389 5.18663C21.0351 5.06875 20.8046 5.00453 20.5692 5H3.38992C3.15449 5.00453 2.92403 5.06875 2.72025 5.18663C2.51646 5.30451 2.34601 5.47219 2.22485 5.67393L9.86918 13.4241C10.4388 13.9642 11.1943 14.2653 11.9796 14.2653C12.7649 14.2653 13.5203 13.9642 14.0899 13.4241Z" fill="#F5AE22"/>
<path d="M15.1119 14.4452C14.7065 14.8593 14.2223 15.1882 13.688 15.4128C13.1536 15.6374 12.5797 15.7531 11.9999 15.7531C11.4202 15.7531 10.8464 15.6374 10.312 15.4128C9.77766 15.1882 9.29354 14.8593 8.88811 14.4452L2.00004 7.45068V18.5603C1.9973 18.9377 2.14402 19.3008 2.40823 19.5705C2.67243 19.8403 3.03268 19.9946 3.41036 20H20.5896C20.9673 19.9946 21.3276 19.8403 21.5918 19.5705C21.856 19.3008 22.0027 18.9377 22 18.5603V7.45068L15.1119 14.4452Z" fill="#F5AE22"/>
</svg>
