<svg width="24" height="24" viewBox="0 0 24 24" fill="none" xmlns="http://www.w3.org/2000/svg">
<path d="M3 21.9917C3.16124 20.6657 3.88246 19.4517 5.00743 18.6127C5.53855 18.264 6.13267 17.9817 6.68179 17.6579C6.92485 17.5168 7.05985 17.5749 7.21288 17.7825C8.03905 18.8553 9.26236 19.6122 10.652 19.9105C12.0417 20.2087 13.5017 20.0276 14.7566 19.4014C15.5242 18.9094 16.2414 18.3536 16.8991 17.741L18.3934 18.3968C18.9927 18.6927 19.519 19.1 19.9389 19.593C20.3588 20.0861 20.6632 20.654 20.8329 21.2611C21.085 21.9087 20.977 22 20.977 22" fill="#F5AE22"/>
<path d="M19.0595 16.5039H16.1339C15.8601 16.5325 15.5851 16.4619 15.3667 16.307C15.1484 16.1521 15.0039 15.925 14.9637 15.6737C14.8576 15.3405 14.7704 15.0024 14.7026 14.6608C12.4251 16.3877 11.4259 16.4043 9.12136 14.7438C9.04503 15.0261 8.94875 15.3034 8.83324 15.574C8.45515 16.3212 8.21212 16.4707 7.50096 16.4043C6.60075 16.4043 5.77257 16.4043 4.91738 16.4043C5.14564 16.074 5.31572 15.7126 5.42144 15.3333C5.46729 14.7767 5.42186 14.2169 5.2865 13.6729C4.86136 12.1424 4.78497 10.5473 5.06232 8.98822C5.33968 7.42918 5.96467 5.94012 6.89778 4.61518C7.37051 3.84116 8.05281 3.19337 8.87796 2.73503C9.70311 2.27668 10.6429 2.02344 11.6058 2C14.4595 2 16.431 3.29515 17.7362 5.61145C18.6357 7.26553 19.0368 9.11207 18.8975 10.958C18.8435 12.0954 18.6634 13.2162 18.4924 14.3453C18.4081 14.7214 18.4153 15.1101 18.5134 15.4833C18.6114 15.8566 18.7979 16.2051 19.0595 16.5039ZM13.0102 6.49148C12.6633 6.78582 12.2997 7.06295 11.921 7.3217C10.7126 8.08389 9.35987 8.63022 7.93304 8.93233C7.72599 8.99044 7.57292 9.01534 7.55491 9.281C7.42119 10.7461 7.83064 12.2096 8.71621 13.4321C8.95156 13.7419 9.21024 14.0359 9.49037 14.3122C10.9937 15.7982 12.6411 15.8231 14.2254 14.4118C15.5136 13.199 16.2949 11.605 16.431 9.91198C16.4769 9.70096 16.4544 9.48215 16.3664 9.28283C16.2783 9.08351 16.1286 8.91252 15.9358 8.79118C15.6544 8.61141 15.3839 8.41741 15.1256 8.21004C14.4235 7.6538 13.7303 7.08094 13.0102 6.49148Z" fill="#F5AE22"/>
<path d="M14.1265 16.0142C14.3097 16.3679 14.576 16.6796 14.9061 16.9266C15.2362 17.1736 15.6218 17.3497 16.0349 17.4421C15.5592 18.069 14.9172 18.573 14.1702 18.9058C13.4232 19.2387 12.5961 19.3893 11.7679 19.3433C11.0331 19.3313 10.3105 19.1677 9.65315 18.8646C8.9958 18.5615 8.42044 18.1265 7.96912 17.5915L9.76952 16.1636C10.4259 16.5508 11.1947 16.744 11.9733 16.7173C12.7519 16.6906 13.5031 16.4453 14.1265 16.0142Z" fill="#F5AE22"/>
</svg>
