<svg width="618" height="559" viewBox="0 0 618 559" fill="none" xmlns="http://www.w3.org/2000/svg">
<path d="M565.981 171.502L558.296 165.236L560.722 160.741L567.14 149.979L566.783 160.31L565.981 171.502Z" fill="#384778"/>
<path d="M572.398 478.519L572.795 478.339C580.219 477.826 587.65 479.25 594.374 482.473C596.156 483.364 598.048 484.806 597.563 486.678C597.216 488.029 595.651 489.01 594.116 489.23C592.612 489.378 591.094 489.19 589.67 488.68C583.348 486.847 577.464 483.726 572.379 479.51L571.973 478.719C572.12 478.666 572.263 478.599 572.398 478.519Z" fill="#B18BBF"/>
<path d="M593.581 467.687C598.719 467.166 603.877 468.468 608.169 471.371C608.811 471.776 609.353 472.324 609.753 472.973C609.956 473.294 610.063 473.668 610.063 474.049C610.063 474.43 609.956 474.804 609.753 475.125C609.5 475.444 609.184 475.707 608.827 475.898C608.469 476.089 608.077 476.204 607.673 476.236C606.879 476.311 606.078 476.244 605.306 476.036C600.423 475.024 596.014 472.392 592.779 468.558L592.383 468.819C592.214 468.608 592.056 468.398 591.907 468.178C592.601 467.767 593.294 467.357 593.967 466.937C593.829 467.187 593.71 467.437 593.581 467.687Z" fill="#B18BBF"/>
<path d="M572.487 478.358C572.269 478.36 572.05 478.376 571.834 478.408V477.737C569.026 473.44 567.471 468.43 567.348 463.282C567.263 462.233 567.429 461.179 567.833 460.209C568.075 459.687 568.438 459.232 568.891 458.884C569.345 458.535 569.875 458.303 570.437 458.206C570.902 458.156 571.372 458.213 571.812 458.374C572.251 458.536 572.648 458.797 572.973 459.137C573.546 459.784 573.965 460.555 574.201 461.39C575.092 464.184 575.4 467.135 575.105 470.056C574.81 472.976 573.919 475.803 572.487 478.358Z" fill="#B18BBF"/>
<path d="M593.928 466.936C593.254 467.357 592.561 467.767 591.868 468.177C589.28 464.537 588.158 460.039 588.729 455.594C588.781 454.887 588.994 454.202 589.352 453.592C589.552 453.261 589.825 452.982 590.15 452.777C590.475 452.572 590.843 452.446 591.224 452.411C591.741 452.445 592.238 452.627 592.657 452.936C593.076 453.244 593.4 453.666 593.591 454.152C594.595 456.12 595.147 458.292 595.205 460.505C595.263 462.719 594.827 464.917 593.928 466.936Z" fill="#B18BBF"/>
<path d="M602.128 461.741L601.811 461.34C603.069 456.836 607.03 452.801 611.912 451.019C613.035 450.557 614.25 450.372 615.457 450.479C616.013 450.509 616.544 450.721 616.971 451.082C617.397 451.443 617.697 451.934 617.824 452.481C618.032 453.942 616.487 455.244 615.071 456.165C610.78 458.99 606.23 461.39 601.484 463.332L600.9 462.592C601.306 462.281 601.722 462.021 602.128 461.741Z" fill="#B18BBF"/>
<path d="M176.924 254.24C178.069 263.647 176.883 273.193 173.472 282.021C170.061 290.849 164.533 298.682 157.385 304.814L156.523 305.815C156.315 305.655 156.107 305.495 155.889 305.345C155.393 295.779 157.025 286.222 160.665 277.378C164.305 268.534 169.861 260.627 176.924 254.24Z" fill="#8251A1"/>
<path d="M153.186 201.083C152.788 212.475 148.147 223.295 140.193 231.375C136.766 234.849 132.27 237.862 127.527 237.742C127.703 229.743 130.241 221.979 134.812 215.447C139.384 208.916 145.782 203.914 153.186 201.083Z" fill="#F8CE7C"/>
<path d="M158.019 234.49C159.211 242.151 158.192 249.998 155.085 257.089C151.978 264.181 146.914 270.216 140.5 274.472H140.015V274.412C138.321 266.683 139.169 258.606 142.429 251.408C145.689 244.21 151.183 238.284 158.078 234.53L158.019 234.49Z" fill="#F8CE7C"/>
<path d="M139.391 188.901C139.472 189.669 139.395 190.447 139.163 191.183C137.98 195.486 135.667 199.384 132.469 202.465C129.272 205.545 125.308 207.694 121 208.682H120.872C120.872 208.442 120.802 208.211 120.773 207.971L121.109 207.921C122.029 203.704 123.81 199.727 126.337 196.245C128.864 192.763 132.082 189.852 135.786 187.7C136.449 187.223 137.269 187.026 138.074 187.149C138.427 187.297 138.735 187.537 138.967 187.845C139.198 188.153 139.344 188.517 139.391 188.901Z" fill="#F8CE7C"/>
<path d="M155.929 305.965C156.176 306.375 156.424 306.796 156.691 307.206C147.443 312.259 136.946 314.498 126.467 313.653C123.887 313.55 121.355 312.923 119.019 311.811C117.859 311.241 116.845 310.41 116.053 309.381C115.261 308.351 114.714 307.152 114.454 305.875C120.221 301.24 127.328 298.634 134.693 298.453C142.059 298.272 149.282 300.527 155.265 304.874C155.483 305.224 155.711 305.585 155.929 305.965Z" fill="#8251A1"/>
<path d="M118.03 181.032L116.891 181.092C113.867 175.356 112.339 168.936 112.452 162.438C112.564 155.94 114.314 149.578 117.534 143.953C121.17 149.581 123.18 156.124 123.337 162.845C123.495 169.565 121.794 176.197 118.426 181.993H118.079C118.109 181.723 118.089 181.362 118.03 181.032Z" fill="#F8CE7C"/>
<path d="M139.421 273.7C139.521 273.978 139.64 274.249 139.777 274.511C130.895 277.96 121.256 278.918 111.88 277.284C109.303 276.941 106.818 276.094 104.561 274.791C103.442 274.131 102.478 273.232 101.737 272.157C100.997 271.081 100.497 269.855 100.273 268.565C106.588 265.519 113.64 264.387 120.578 265.303C127.516 266.22 134.043 269.147 139.371 273.73L139.421 273.7Z" fill="#F8CE7C"/>
<path d="M125.774 237.081L124.902 238.082C119.352 240.861 113.031 241.642 106.983 240.297C100.934 238.952 95.5208 235.561 91.6372 230.685C97.3883 228.673 103.557 228.205 109.541 229.326C115.525 230.448 121.118 233.12 125.774 237.081Z" fill="#F8CE7C"/>
<path d="M107.651 199.332C112.83 200.383 117.92 203.336 120.327 208.061C115.244 210.438 109.485 210.887 104.103 209.324C98.72 207.762 94.0737 204.293 91.0134 199.552C96.5394 198.881 102.184 198.211 107.651 199.332Z" fill="#F8CE7C"/>
<path d="M169.586 321.041C138.345 278.095 120.912 226.485 119.644 173.194C119.644 171.071 116.316 170.801 116.366 172.943C117.617 227.119 135.338 279.592 167.12 323.233C168.368 324.955 170.833 322.753 169.586 321.041Z" fill="#F8CE7C"/>
<path d="M150.938 348.89L151.344 348.49C155.171 334.142 156.101 319.162 154.077 304.443C153.961 303.68 153.61 302.973 153.074 302.423C152.537 301.873 151.843 301.508 151.09 301.38C150.337 301.251 149.563 301.366 148.878 301.707C148.193 302.049 147.631 302.6 147.274 303.282C143.391 310.664 141.509 318.953 141.817 327.307L135.925 278.315C135.838 277.616 135.55 276.958 135.095 276.423C134.64 275.889 134.04 275.501 133.368 275.31C132.697 275.119 131.985 275.132 131.321 275.348C130.657 275.564 130.071 275.973 129.636 276.523C123.975 283.797 120.34 292.469 119.109 301.64C120.368 285.902 120.454 270.091 119.366 254.34C119.313 253.645 119.047 252.983 118.604 252.449C118.161 251.914 117.563 251.533 116.895 251.359C116.227 251.185 115.522 251.226 114.879 251.477C114.235 251.728 113.685 252.176 113.306 252.758C107.896 260.882 104.912 270.407 104.71 280.197L100.63 229.854C100.604 227.809 100.163 225.792 99.3322 223.928C97.9458 221.295 94.4401 219.463 91.7365 222.696C90.776 223.922 90.2031 225.411 90.0926 226.971L88.1119 249.274C82.1168 232.908 74.0549 217.393 64.1264 203.115C62.2844 200.483 59.6996 197.56 56.4316 198.481C55.1586 198.884 54.0923 199.775 53.4606 200.963C52.1138 203.366 52.3217 206.099 52.6683 208.721C54.8917 224.985 62.2601 240.085 73.6731 251.767L54.649 242.477C54.0837 242.2 53.4407 242.13 52.8297 242.278C52.2188 242.427 51.6778 242.785 51.2991 243.292C50.9204 243.799 50.7275 244.423 50.7533 245.057C50.779 245.692 51.0219 246.298 51.4403 246.772C62.2208 259.248 74.7688 270.043 88.6764 278.806L62.9281 267.414C62.4618 267.207 61.9386 267.172 61.4493 267.314C60.96 267.456 60.5356 267.768 60.2496 268.193C59.9636 268.619 59.8343 269.133 59.8839 269.645C59.9336 270.157 60.1592 270.636 60.5216 270.998C73.0459 283.317 87.6793 293.235 103.709 300.269L69.2562 289.958C68.7792 289.803 68.2638 289.823 67.7998 290.014C67.3358 290.204 66.9525 290.553 66.7169 291C66.4812 291.446 66.408 291.962 66.5101 292.458C66.6122 292.954 66.8831 293.397 67.2756 293.712C82.4479 305.786 99.5675 315.122 117.881 321.311C105.158 317.626 92.0922 315.277 78.892 314.304C78.2894 314.269 77.6937 314.447 77.2066 314.808C76.7195 315.168 76.3714 315.688 76.2217 316.279C76.072 316.87 76.13 317.496 76.3859 318.048C76.6418 318.601 77.0795 319.046 77.6244 319.309C95.3726 327.665 113.968 334.043 133.082 338.329L93.7964 335.206C93.3224 335.162 92.8488 335.293 92.4623 335.574C92.0757 335.854 91.8022 336.266 91.6915 336.734C91.5809 337.202 91.6407 337.695 91.8599 338.122C92.0791 338.549 92.4431 338.882 92.8853 339.06C111.112 346.746 130.765 350.362 150.502 349.661L151.086 349.1C151.047 349.01 150.997 348.94 150.938 348.89Z" fill="#FFE5B2"/>
<path d="M57.313 208.762C56.5801 207.03 59.3629 206.179 60.0958 207.911C83.9741 264.124 117.906 315.402 160.187 359.171C161.495 360.513 159.534 362.695 158.207 361.344C115.574 317.192 81.3696 265.465 57.313 208.762Z" fill="#F8CE7C"/>
<path d="M103.175 375.189C103.977 375.773 104.916 376.135 105.899 376.239C106.883 376.342 107.876 376.184 108.78 375.779C110.58 374.945 112.212 373.78 113.593 372.346C120.714 365.745 127.443 358.725 133.746 351.323C128.308 351.399 122.943 352.599 117.981 354.847C113.018 357.095 108.563 360.345 104.888 364.397C103.44 365.844 102.36 367.623 101.739 369.583C101.444 370.56 101.422 371.601 101.675 372.59C101.929 373.579 102.448 374.479 103.175 375.189Z" fill="#677DAE"/>
<path d="M84.9625 357.76C85.2497 359.872 87.27 361.414 89.3497 361.764C91.4576 361.99 93.5877 361.67 95.5392 360.833C104.241 357.694 111.894 352.143 117.623 344.816L117.722 344.025C107.53 342.831 97.2582 345.467 88.8644 351.433C86.755 352.985 84.5961 355.177 84.9625 357.76Z" fill="#677DAE"/>
<path d="M71.3754 348.12C72.3657 350.202 75.208 350.262 77.4164 349.812C86.4041 347.968 94.4399 342.928 100.065 335.607L98.936 335.016L98.837 335.206C90.0923 334.673 81.4291 337.17 74.2771 342.284C73.286 342.924 72.4281 343.754 71.7517 344.726C71.4219 345.219 71.2154 345.785 71.1498 346.376C71.0843 346.967 71.1617 347.566 71.3754 348.12Z" fill="#677DAE"/>
<path d="M60.4324 338.289C60.7053 338.867 61.1233 339.362 61.6445 339.726C62.1658 340.089 62.7722 340.309 63.4033 340.362C64.6649 340.467 65.9343 340.3 67.1269 339.871C74.1685 337.804 80.5349 333.87 85.5667 328.479H85.6162C85.6457 328.445 85.6662 328.403 85.6756 328.359L85.5073 328.269C77.9136 326.93 70.0985 328.474 63.5618 332.603C62.539 333.187 61.643 333.974 60.9275 334.916C60.5798 335.395 60.353 335.953 60.2667 336.541C60.1804 337.128 60.2373 337.729 60.4324 338.289Z" fill="#677DAE"/>
<path d="M73.4649 320.01C66.9815 318.37 60.1344 319.078 54.1141 322.012C53.2804 322.377 52.5239 322.9 51.8859 323.554C51.5303 323.89 51.277 324.323 51.1556 324.8C51.0342 325.277 51.0497 325.779 51.2004 326.247C51.351 326.716 51.6306 327.131 52.0063 327.445C52.382 327.758 52.8383 327.957 53.3218 328.018C54.3072 328.196 55.3182 328.169 56.2928 327.938C62.4874 326.855 68.3585 324.367 73.4649 320.661L73.5739 320.731C73.7977 320.371 74.0027 320 74.1879 319.619C73.7818 319.339 73.3857 319.049 72.9797 318.749C73.1084 319.189 73.2768 319.589 73.4649 320.01Z" fill="#677DAE"/>
<path d="M118.109 344.106L118.921 344.456L119.386 343.275C120.206 334.07 120.537 324.826 120.376 315.585C120.479 313.534 120.141 311.485 119.386 309.579C118.485 307.727 116.534 306.255 114.533 306.576C113.79 306.743 113.097 307.088 112.511 307.581C111.925 308.073 111.464 308.7 111.166 309.409C110.579 310.827 110.27 312.346 110.255 313.884C109.644 324.499 112.324 335.042 117.92 344.046L118.109 344.106Z" fill="#677DAE"/>
<path d="M99.8672 334.865L100.263 334.615C102.103 328.047 103.366 321.327 104.036 314.534C104.237 313.127 104.213 311.698 103.967 310.299C103.839 309.602 103.558 308.942 103.145 308.369C102.732 307.796 102.198 307.323 101.58 306.986C99.689 306.055 97.2726 307.086 96.0347 308.818C94.9128 310.645 94.3447 312.764 94.4007 314.914C94.1404 321.976 96.0501 328.945 99.8672 334.865Z" fill="#677DAE"/>
<path d="M85.656 327.328C85.7848 327.408 85.9234 327.498 86.0621 327.568C88.6688 321.801 89.259 315.309 87.7357 309.158C87.5072 308.019 87.0376 306.943 86.3592 306.005C86.0471 305.539 85.6117 305.17 85.1026 304.942C84.5934 304.714 84.0311 304.635 83.4797 304.715C82.9284 304.794 82.4102 305.028 81.9842 305.391C81.5583 305.754 81.2418 306.23 81.0708 306.766C80.7056 307.768 80.5407 308.833 80.5856 309.899C80.5478 316.086 82.3112 322.147 85.656 327.328Z" fill="#677DAE"/>
<path d="M72.9598 318.759C73.3658 319.059 73.762 319.349 74.168 319.63C76.8406 314.439 77.6056 308.459 76.3269 302.752C76.1987 301.988 75.897 301.265 75.4455 300.639C75.2254 300.329 74.9219 300.088 74.5709 299.946C74.22 299.805 73.8362 299.767 73.4649 299.839C72.4745 300.119 72.0388 301.29 71.8209 302.311C70.62 307.79 71.0156 313.503 72.9598 318.759Z" fill="#677DAE"/>
<path d="M65.087 312.782C63.9458 309.731 62.4921 306.808 60.7494 304.063C58.9777 301.309 56.3927 299.19 53.3616 298.006C52.5112 297.673 51.5954 297.546 50.6877 297.636C50.2259 297.696 49.7845 297.865 49.3991 298.129C49.0138 298.394 48.6953 298.746 48.4694 299.157C48.2826 299.608 48.2041 300.097 48.2403 300.584C48.2764 301.071 48.4262 301.543 48.6774 301.96C49.1805 302.794 49.8279 303.53 50.5887 304.133C54.9394 307.975 59.8624 311.1 65.1761 313.393L65.4633 313.022L65.087 312.782Z" fill="#677DAE"/>
<path d="M130.081 320.2C128.35 325.108 127.846 330.374 128.617 335.527C129.388 340.679 131.408 345.559 134.498 349.731C137.406 340.761 139.166 331.453 139.737 322.032C139.896 319.349 139.598 316.025 137.172 314.964C136.394 314.685 135.555 314.631 134.749 314.808C133.942 314.985 133.2 315.386 132.607 315.965C131.432 317.144 130.565 318.599 130.081 320.2Z" fill="#677DAE"/>
<path d="M60.6404 310.75C59.5313 309.949 60.8385 308.267 61.9476 309.068C89.4477 328.913 119.69 344.554 151.7 355.488C152.988 355.928 152.166 357.9 150.878 357.49C118.69 346.478 88.2836 330.729 60.6404 310.75Z" fill="#677DAE"/>
<path d="M513.89 47.3906L537.727 497.969H500.967L513.89 47.3906Z" fill="#D8E6EA"/>
<path d="M493.004 451.069L468.029 443.651L538.262 202.265C543.867 203.937 546.779 197.139 547.749 194.256L548.116 192.985C548.116 192.985 548.116 193.175 547.987 193.485C547.432 195.688 545.62 204.497 551.017 206.099C557.217 207.941 560.495 196.669 560.495 196.669C560.495 196.669 557.593 208.061 563.238 209.683L493.004 451.069Z" fill="#554F57"/>
<path d="M486.983 449.288L474.604 445.604L548.116 192.945C548.116 192.945 548.116 193.136 547.987 193.446C547.432 195.648 545.62 204.458 551.017 206.059C557.217 207.901 560.495 196.629 560.495 196.629L486.983 449.288Z" fill="#BAACBF"/>
<path d="M547.987 193.445C548.076 193.135 548.116 192.945 548.116 192.945L547.749 194.216C546.759 197.139 543.867 203.936 538.262 202.225L560.703 160.73L566.774 160.31L563.218 209.693C557.573 208.021 560.475 196.679 560.475 196.679C560.475 196.679 557.197 207.951 550.998 206.109C545.62 204.457 547.433 195.648 547.987 193.445Z" fill="#F6EABA"/>
<path d="M494.507 445.874L497.958 434.014L472.99 426.59L469.539 438.451L494.507 445.874Z" fill="#D8E6EA"/>
<path d="M490.073 466.135L495.408 447.645L470.423 440.279L465.088 458.769L490.073 466.135Z" fill="#384778"/>
<path d="M489.132 464.363C489.132 464.363 483.636 446.534 464.166 456.935L489.132 464.363Z" fill="#677DAE"/>
<path d="M478.328 395.12C477.183 404.525 478.369 414.07 481.779 422.897C485.19 431.723 490.718 439.554 497.867 445.684L498.728 446.685C498.929 446.514 499.141 446.356 499.362 446.214C499.857 436.65 498.224 427.095 494.584 418.253C490.944 409.411 485.389 401.506 478.328 395.12Z" fill="#677DAE"/>
<path d="M502.066 341.953C502.463 353.346 507.099 364.169 515.049 372.255C518.485 375.729 522.972 378.742 527.715 378.622C527.541 370.622 525.006 362.857 520.436 356.324C515.866 349.79 509.469 344.786 502.066 341.953Z" fill="#677DAE"/>
<path d="M497.233 375.369C496.042 383.028 497.06 390.871 500.165 397.961C503.271 405.05 508.332 411.084 514.742 415.341H515.237V415.281C516.932 407.552 516.085 399.475 512.825 392.276C509.565 385.078 504.069 379.152 497.174 375.399L497.233 375.369Z" fill="#677DAE"/>
<path d="M515.861 329.771C515.778 330.539 515.856 331.317 516.089 332.053C517.271 336.362 519.589 340.266 522.794 343.348C526 346.43 529.974 348.574 534.291 349.552H534.419C534.419 349.301 534.489 349.071 534.518 348.841H534.182C533.266 344.622 531.487 340.643 528.959 337.161C526.432 333.678 523.211 330.769 519.505 328.619C518.842 328.143 518.022 327.946 517.217 328.069C516.863 328.206 516.55 328.436 516.312 328.735C516.074 329.034 515.918 329.391 515.861 329.771Z" fill="#677DAE"/>
<path d="M499.303 446.795C499.055 447.205 498.808 447.636 498.54 448.036C507.786 453.099 518.283 455.348 528.765 454.513C531.345 454.406 533.878 453.777 536.212 452.661C537.37 452.103 538.385 451.284 539.18 450.267C539.975 449.25 540.528 448.062 540.797 446.795C535.027 442.166 527.922 439.564 520.558 439.383C513.193 439.202 505.971 441.453 499.986 445.794L499.303 446.795Z" fill="#677DAE"/>
<path d="M537.183 321.902L538.321 321.962C541.345 316.228 542.873 309.81 542.76 303.313C542.648 296.816 540.898 290.456 537.678 284.833C534.042 290.461 532.032 297.004 531.875 303.724C531.717 310.445 533.418 317.077 536.786 322.873H537.133C537.143 322.593 537.163 322.242 537.183 321.902Z" fill="#677DAE"/>
<path d="M515.831 414.58C515.729 414.855 515.61 415.122 515.475 415.381C524.356 418.834 533.995 419.795 543.372 418.164C545.949 417.821 548.434 416.975 550.691 415.671C551.81 415.011 552.774 414.112 553.515 413.037C554.255 411.961 554.755 410.736 554.979 409.445C548.665 406.398 541.613 405.264 534.676 406.178C527.738 407.093 521.21 410.018 515.881 414.6L515.831 414.58Z" fill="#677DAE"/>
<path d="M529.478 377.951L530.35 378.952C535.899 381.731 542.221 382.512 548.269 381.167C554.317 379.822 559.731 376.431 563.614 371.555C557.863 369.543 551.694 369.075 545.711 370.196C539.727 371.318 534.134 373.99 529.478 377.951Z" fill="#677DAE"/>
<path d="M547.601 340.202C542.421 341.263 537.331 344.206 534.925 348.931C540.005 351.313 545.765 351.766 551.149 350.205C556.532 348.644 561.179 345.174 564.238 340.432C558.722 339.761 553.057 339.08 547.601 340.202Z" fill="#677DAE"/>
<path d="M485.666 461.911C516.909 418.967 534.343 367.356 535.608 314.064C535.657 311.942 538.935 311.682 538.886 313.814C537.634 367.993 519.914 420.469 488.132 464.114C486.884 465.815 484.448 463.623 485.666 461.911Z" fill="#677DAE"/>
<path d="M504.314 489.76L503.908 489.37C500.081 475.022 499.151 460.042 501.175 445.323C501.289 444.559 501.639 443.851 502.175 443.3C502.71 442.749 503.404 442.382 504.158 442.253C504.911 442.123 505.686 442.237 506.372 442.577C507.058 442.918 507.62 443.469 507.978 444.152C511.86 451.534 513.742 459.823 513.435 468.177L519.377 419.185C519.462 418.485 519.749 417.825 520.203 417.29C520.657 416.754 521.257 416.365 521.929 416.173C522.6 415.98 523.313 415.993 523.978 416.208C524.642 416.423 525.229 416.832 525.665 417.383C531.327 424.661 534.961 433.336 536.192 442.51C534.933 426.775 534.847 410.967 535.935 395.22C535.988 394.524 536.255 393.863 536.698 393.329C537.141 392.794 537.738 392.413 538.406 392.239C539.074 392.065 539.779 392.106 540.423 392.357C541.066 392.608 541.616 393.056 541.996 393.638C547.405 401.762 550.389 411.287 550.592 421.077L554.672 370.724C554.697 368.682 555.139 366.668 555.969 364.807C557.355 362.165 560.861 360.333 563.565 363.576C564.529 364.8 565.102 366.29 565.209 367.851L567.189 390.154C573.182 373.784 581.244 358.265 591.175 343.985C593.017 341.352 595.602 338.429 598.87 339.36C600.141 339.761 601.208 340.648 601.841 341.833C603.188 344.246 602.97 346.979 602.633 349.591C600.41 365.855 593.041 380.955 581.628 392.637L600.662 383.387C601.228 383.118 601.869 383.054 602.476 383.206C603.084 383.357 603.621 383.716 603.997 384.221C604.374 384.726 604.567 385.347 604.544 385.979C604.521 386.611 604.283 387.216 603.871 387.692C593.093 400.172 580.545 410.967 566.635 419.726L592.383 408.334C592.849 408.127 593.373 408.091 593.862 408.234C594.351 408.376 594.776 408.688 595.062 409.113C595.348 409.539 595.477 410.053 595.427 410.565C595.378 411.077 595.152 411.556 594.79 411.917C582.263 424.236 567.63 434.157 551.602 441.199L586.055 430.888C586.532 430.733 587.047 430.753 587.511 430.943C587.975 431.134 588.359 431.483 588.594 431.929C588.83 432.376 588.903 432.892 588.801 433.388C588.699 433.883 588.428 434.327 588.036 434.642C572.861 446.709 555.742 456.042 537.43 462.231C550.154 458.545 563.219 456.197 576.419 455.223C577.022 455.189 577.618 455.367 578.105 455.728C578.592 456.088 578.94 456.608 579.09 457.199C579.239 457.79 579.181 458.415 578.925 458.968C578.669 459.521 578.232 459.966 577.687 460.229C559.937 468.58 541.342 474.957 522.229 479.249L561.515 476.126C561.989 476.082 562.462 476.213 562.849 476.494C563.235 476.774 563.509 477.186 563.62 477.654C563.73 478.122 563.671 478.615 563.451 479.042C563.232 479.469 562.868 479.802 562.426 479.98C544.198 487.661 524.545 491.277 504.809 490.581L504.225 490.02L504.314 489.76Z" fill="#F8CE7C"/>
<path d="M597.939 349.632C598.672 347.9 595.889 347.059 595.156 348.781C571.283 404.997 537.35 456.276 495.064 500.042C493.757 501.393 495.718 503.575 497.045 502.214C539.68 458.064 573.885 406.336 597.939 349.632Z" fill="#475888"/>
<path d="M542.659 512.154C542.182 512.798 541.558 513.316 540.841 513.665C540.124 514.013 539.335 514.182 538.539 514.156C536.997 514.105 535.48 513.738 534.083 513.075C526.498 510.014 519.764 505.132 514.465 498.85L514.306 497.959L514.455 497.809C524.239 497.489 533.776 500.602 540.53 506.358C542.263 507.86 543.867 510.102 542.659 512.154Z" fill="#B18BBF"/>
<path d="M572.111 501.463C571.2 503.195 568.526 503.335 566.506 503.044C557.276 501.693 548.898 497.378 543.214 491.032L543.62 490.541C553.335 489.42 563.179 491.853 570.2 497.228C571.596 498.299 572.933 499.851 572.111 501.463Z" fill="#B18BBF"/>
<path d="M544.194 489.84C543.58 490.061 542.976 490.251 542.362 490.451C540.015 483.092 540.317 475.133 543.214 467.977C543.738 466.666 544.64 465.144 546.185 464.974C547.947 464.774 548.938 466.506 549.304 467.977C551.057 475.225 549.136 483.333 544.194 489.84Z" fill="#B18BBF"/>
<path d="M514.95 497.309L514.673 495.717C512.479 488.776 512.211 481.359 513.9 474.274C514.134 472.963 514.648 471.72 515.405 470.63C515.831 470.049 516.385 469.576 517.022 469.247C517.66 468.919 518.364 468.745 519.079 468.738C521.367 468.848 522.447 471.101 522.833 473.083C524.437 481.322 521.426 490.521 514.95 497.309Z" fill="#B18BBF"/>
<path d="M605.425 460.62C606.723 459.809 605.534 458.087 604.227 458.908C570.52 480.029 532.99 494.155 493.826 500.462C492.321 500.702 492.291 502.804 493.826 502.554C533.411 496.203 571.348 481.948 605.425 460.62Z" fill="#B18BBF"/>
<g filter="url(#filter0_d_55_17)">
<path d="M513.89 47.3906L500.966 497.969L500.382 518.141H174.676L197.7 47.3906H253.673H513.89Z" fill="white"/>
</g>
<path d="M438.368 59.6836L436.695 67.3317H243.632L245.305 59.6836H252.515H424.781H438.368Z" fill="#9EA4B6"/>
<path d="M429.218 31.4033L434.655 47.3903H426.712L429.218 31.4033Z" fill="#6C5188"/>
<path d="M429.218 31.4034L426.702 47.4204H253.703L255.209 31.4034L290.583 31.7037C290.583 31.7037 296.277 0 344.06 0C391.843 0 380.9 31.4034 380.9 31.4034H429.218ZM360.807 29.8417C360.807 29.8417 363.53 12.3331 340.852 11.5022C318.173 10.6713 310.934 29.8417 310.934 29.8417H360.807Z" fill="#2D2D2D"/>
<path d="M426.712 47.3906L424.781 59.6837H252.515L253.674 47.3906H426.712Z" fill="#2D2D2D"/>
<path d="M472.713 111.899C473.427 111.899 474.112 112.186 474.617 112.696C475.123 113.207 475.406 113.9 475.406 114.622C475.406 115.344 475.123 116.037 474.617 116.547C474.112 117.058 473.427 117.345 472.713 117.345H262.765C262.052 117.339 261.37 117.051 260.866 116.541C260.362 116.032 260.076 115.342 260.071 114.622C260.07 114.264 260.139 113.909 260.273 113.578C260.408 113.247 260.607 112.947 260.857 112.694C261.108 112.44 261.405 112.24 261.732 112.104C262.06 111.967 262.411 111.898 262.765 111.899H472.713Z" fill="#2F3D64"/>
<path d="M443.785 122.45C444.14 122.428 444.496 122.48 444.83 122.602C445.165 122.724 445.471 122.914 445.73 123.16C445.989 123.406 446.195 123.703 446.337 124.033C446.478 124.363 446.55 124.719 446.55 125.078C446.55 125.438 446.478 125.793 446.337 126.123C446.195 126.453 445.989 126.75 445.73 126.996C445.471 127.242 445.165 127.432 444.83 127.554C444.496 127.677 444.14 127.728 443.785 127.706H262.616C262.261 127.728 261.906 127.677 261.571 127.554C261.237 127.432 260.931 127.242 260.672 126.996C260.413 126.75 260.206 126.453 260.065 126.123C259.924 125.793 259.851 125.438 259.851 125.078C259.851 124.719 259.924 124.363 260.065 124.033C260.206 123.703 260.413 123.406 260.672 123.16C260.931 122.914 261.237 122.724 261.571 122.602C261.906 122.48 262.261 122.428 262.616 122.45H443.785Z" fill="#2F3D64"/>
<path d="M252.515 98.9653L249.91 140.159H207.198L209.812 98.9653H252.515Z" fill="#C6E8E8"/>
<path d="M232.659 128.707C231.932 128.713 231.227 128.45 230.679 127.966L218.002 116.954C217.699 116.691 217.451 116.371 217.27 116.011C217.09 115.65 216.981 115.258 216.951 114.855C216.921 114.453 216.969 114.048 217.093 113.665C217.218 113.281 217.416 112.926 217.676 112.62C217.936 112.313 218.253 112.062 218.609 111.88C218.965 111.697 219.354 111.588 219.752 111.557C220.15 111.526 220.55 111.575 220.93 111.701C221.309 111.826 221.661 112.026 221.964 112.289L232.332 121.299L253.803 96.1523C254.053 95.8157 254.369 95.5346 254.731 95.3265C255.093 95.1184 255.493 94.9877 255.907 94.9426C256.321 94.8974 256.74 94.9387 257.138 95.0639C257.535 95.1891 257.903 95.3955 258.219 95.6703C258.534 95.9452 258.79 96.2827 258.971 96.6618C259.152 97.0409 259.254 97.4535 259.271 97.8741C259.288 98.2948 259.219 98.7144 259.069 99.107C258.919 99.4996 258.69 99.8569 258.398 100.157L234.957 127.626C234.674 127.963 234.322 128.235 233.926 128.422C233.529 128.608 233.097 128.706 232.659 128.707Z" fill="#B18BBF"/>
<path d="M462.81 191.523C463.5 191.523 464.163 191.801 464.651 192.295C465.14 192.788 465.414 193.458 465.414 194.156C465.414 194.854 465.14 195.524 464.651 196.018C464.163 196.512 463.5 196.789 462.81 196.789H261.774C261.084 196.789 260.421 196.512 259.933 196.018C259.444 195.524 259.17 194.854 259.17 194.156C259.17 193.458 259.444 192.788 259.933 192.295C260.421 191.801 261.084 191.523 261.774 191.523H462.81Z" fill="#2F3D64"/>
<path d="M442.904 179.982C443.259 179.959 443.614 180.011 443.949 180.133C444.283 180.255 444.589 180.445 444.848 180.691C445.107 180.937 445.314 181.235 445.455 181.564C445.596 181.894 445.669 182.25 445.669 182.609C445.669 182.969 445.596 183.324 445.455 183.654C445.314 183.984 445.107 184.281 444.848 184.528C444.589 184.774 444.283 184.964 443.949 185.086C443.614 185.208 443.259 185.259 442.904 185.237H261.745C261.39 185.259 261.034 185.208 260.7 185.086C260.365 184.964 260.059 184.774 259.8 184.528C259.541 184.281 259.335 183.984 259.193 183.654C259.052 183.324 258.979 182.969 258.979 182.609C258.979 182.25 259.052 181.894 259.193 181.564C259.335 181.235 259.541 180.937 259.8 180.691C260.059 180.445 260.365 180.255 260.7 180.133C261.034 180.011 261.39 179.959 261.745 179.982H442.904Z" fill="#2F3D64"/>
<path d="M382.643 201.444C383.334 201.444 383.996 201.722 384.485 202.215C384.973 202.709 385.248 203.379 385.248 204.077C385.248 204.775 384.973 205.445 384.485 205.939C383.996 206.433 383.334 206.71 382.643 206.71H260.2C259.509 206.71 258.847 206.433 258.358 205.939C257.87 205.445 257.595 204.775 257.595 204.077C257.595 203.379 257.87 202.709 258.358 202.215C258.847 201.722 259.509 201.444 260.2 201.444H382.643Z" fill="#2F3D64"/>
<path d="M252.515 168.429L249.91 209.643H207.198L209.812 168.429H252.515Z" fill="#C6E8E8"/>
<path d="M231.124 196.779C230.396 196.786 229.692 196.522 229.143 196.039L216.467 185.027C216.164 184.764 215.915 184.443 215.735 184.083C215.555 183.723 215.446 183.331 215.416 182.928C215.385 182.526 215.434 182.121 215.558 181.737C215.682 181.354 215.88 180.999 216.14 180.692C216.401 180.386 216.718 180.135 217.074 179.952C217.43 179.77 217.819 179.66 218.217 179.629C218.615 179.599 219.015 179.648 219.395 179.773C219.774 179.899 220.126 180.099 220.429 180.362L230.807 189.372L252.267 164.225C252.527 163.92 252.844 163.67 253.2 163.488C253.556 163.307 253.944 163.199 254.341 163.169C254.738 163.139 255.137 163.189 255.516 163.315C255.894 163.441 256.244 163.642 256.546 163.905C256.847 164.167 257.095 164.488 257.274 164.847C257.453 165.207 257.561 165.599 257.59 166C257.619 166.402 257.57 166.806 257.446 167.188C257.321 167.57 257.123 167.924 256.862 168.229L233.422 195.698C233.139 196.036 232.787 196.308 232.39 196.494C231.994 196.681 231.562 196.778 231.124 196.779Z" fill="#B18BBF"/>
<path d="M461.433 254.851C461.788 254.829 462.143 254.881 462.478 255.003C462.812 255.125 463.118 255.315 463.378 255.561C463.637 255.807 463.843 256.104 463.984 256.434C464.125 256.764 464.198 257.12 464.198 257.479C464.198 257.838 464.125 258.194 463.984 258.524C463.843 258.854 463.637 259.151 463.378 259.397C463.118 259.643 462.812 259.833 462.478 259.955C462.143 260.077 461.788 260.129 461.433 260.107H260.398C260.043 260.129 259.687 260.077 259.353 259.955C259.019 259.833 258.712 259.643 258.453 259.397C258.194 259.151 257.988 258.854 257.847 258.524C257.706 258.194 257.633 257.838 257.633 257.479C257.633 257.12 257.706 256.764 257.847 256.434C257.988 256.104 258.194 255.807 258.453 255.561C258.712 255.315 259.019 255.125 259.353 255.003C259.687 254.881 260.043 254.829 260.398 254.851H461.433Z" fill="#2F3D64"/>
<path d="M441.527 243.278C442.218 243.278 442.881 243.556 443.369 244.049C443.857 244.543 444.132 245.213 444.132 245.911C444.132 246.609 443.857 247.279 443.369 247.773C442.881 248.267 442.218 248.544 441.527 248.544H260.368C259.677 248.544 259.015 248.267 258.526 247.773C258.038 247.279 257.763 246.609 257.763 245.911C257.763 245.213 258.038 244.543 258.526 244.049C259.015 243.556 259.677 243.278 260.368 243.278H441.527Z" fill="#2F3D64"/>
<path d="M381.267 264.751C381.928 264.793 382.55 265.088 383.004 265.576C383.458 266.064 383.711 266.709 383.711 267.379C383.711 268.049 383.458 268.694 383.004 269.183C382.55 269.671 381.928 269.966 381.267 270.007H258.823C258.162 269.966 257.54 269.671 257.086 269.183C256.632 268.694 256.379 268.049 256.379 267.379C256.379 266.709 256.632 266.064 257.086 265.576C257.54 265.088 258.162 264.793 258.823 264.751H381.267Z" fill="#2F3D64"/>
<path d="M252.515 237.922L249.91 279.116H207.198L209.812 237.922H252.515Z" fill="#C6E8E8"/>
<path d="M231.917 265.532C231.189 265.538 230.484 265.275 229.936 264.791L217.26 253.779C216.648 253.248 216.27 252.493 216.208 251.68C216.147 250.867 216.408 250.063 216.933 249.445C217.458 248.826 218.205 248.444 219.009 248.382C219.813 248.32 220.609 248.583 221.221 249.114L231.6 258.124L253.06 232.967C253.313 232.64 253.63 232.369 253.99 232.169C254.35 231.969 254.747 231.846 255.156 231.805C255.565 231.765 255.977 231.808 256.369 231.934C256.761 232.059 257.123 232.263 257.435 232.534C257.746 232.805 258 233.137 258.181 233.509C258.362 233.882 258.467 234.288 258.488 234.703C258.51 235.118 258.448 235.532 258.306 235.922C258.165 236.312 257.947 236.669 257.665 236.971L234.194 264.47C233.911 264.801 233.561 265.067 233.169 265.25C232.776 265.433 232.349 265.529 231.917 265.532Z" fill="#B18BBF"/>
<path d="M471.336 318.278C472.05 318.278 472.736 318.565 473.241 319.076C473.746 319.587 474.03 320.279 474.03 321.001C474.03 321.723 473.746 322.416 473.241 322.927C472.736 323.437 472.05 323.724 471.336 323.724H261.329C260.797 323.723 260.277 323.562 259.836 323.263C259.394 322.964 259.05 322.539 258.846 322.042C258.643 321.546 258.59 320.999 258.693 320.472C258.796 319.944 259.052 319.46 259.427 319.079C259.934 318.573 260.616 318.285 261.329 318.278H471.336Z" fill="#2F3D64"/>
<path d="M442.409 328.839C442.764 328.817 443.119 328.869 443.454 328.991C443.788 329.113 444.094 329.303 444.353 329.549C444.612 329.795 444.819 330.093 444.96 330.422C445.101 330.752 445.174 331.108 445.174 331.467C445.174 331.827 445.101 332.182 444.96 332.512C444.819 332.842 444.612 333.139 444.353 333.385C444.094 333.632 443.788 333.822 443.454 333.944C443.119 334.066 442.764 334.117 442.409 334.095H261.249C260.895 334.117 260.539 334.066 260.205 333.944C259.87 333.822 259.564 333.632 259.305 333.385C259.046 333.139 258.839 332.842 258.698 332.512C258.557 332.182 258.484 331.827 258.484 331.467C258.484 331.108 258.557 330.752 258.698 330.422C258.839 330.093 259.046 329.795 259.305 329.549C259.564 329.303 259.87 329.113 260.205 328.991C260.539 328.869 260.895 328.817 261.249 328.839H442.409Z" fill="#2F3D64"/>
<path d="M252.515 307.397L249.91 348.601H207.198L209.812 307.397H252.515Z" fill="#C6E8E8"/>
<path d="M230.352 333.604C229.626 333.606 228.924 333.347 228.371 332.873L215.695 321.862C215.083 321.331 214.705 320.576 214.643 319.763C214.582 318.95 214.843 318.146 215.368 317.527C215.893 316.908 216.64 316.526 217.444 316.464C218.249 316.402 219.044 316.666 219.656 317.197L230.035 326.206L251.495 301.06C252.032 300.484 252.767 300.139 253.549 300.098C254.33 300.057 255.097 300.321 255.69 300.837C256.284 301.353 256.657 302.08 256.734 302.867C256.81 303.655 256.583 304.441 256.1 305.064L232.659 332.533C232.373 332.869 232.019 333.139 231.621 333.324C231.223 333.509 230.79 333.604 230.352 333.604Z" fill="#B18BBF"/>
<path d="M461.433 397.923C462.124 397.923 462.786 398.2 463.275 398.694C463.763 399.188 464.038 399.857 464.038 400.556C464.038 401.254 463.763 401.924 463.275 402.417C462.786 402.911 462.124 403.188 461.433 403.188H260.398C259.707 403.188 259.045 402.911 258.556 402.417C258.068 401.924 257.793 401.254 257.793 400.556C257.793 399.857 258.068 399.188 258.556 398.694C259.045 398.2 259.707 397.923 260.398 397.923H461.433Z" fill="#2F3D64"/>
<path d="M441.527 386.36C441.882 386.338 442.238 386.39 442.572 386.512C442.907 386.634 443.213 386.824 443.472 387.07C443.731 387.316 443.937 387.613 444.079 387.943C444.22 388.273 444.292 388.629 444.292 388.988C444.292 389.348 444.22 389.703 444.079 390.033C443.937 390.363 443.731 390.66 443.472 390.906C443.213 391.153 442.907 391.343 442.572 391.465C442.238 391.587 441.882 391.638 441.527 391.616H260.368C260.013 391.638 259.658 391.587 259.323 391.465C258.989 391.343 258.683 391.153 258.424 390.906C258.165 390.66 257.958 390.363 257.817 390.033C257.676 389.703 257.603 389.348 257.603 388.988C257.603 388.629 257.676 388.273 257.817 387.943C257.958 387.613 258.165 387.316 258.424 387.07C258.683 386.824 258.989 386.634 259.323 386.512C259.658 386.39 260.013 386.338 260.368 386.36H441.527Z" fill="#2F3D64"/>
<path d="M381.267 407.823C381.957 407.823 382.62 408.101 383.108 408.594C383.597 409.088 383.871 409.758 383.871 410.456C383.871 411.154 383.597 411.824 383.108 412.318C382.62 412.811 381.957 413.089 381.267 413.089H258.823C258.133 413.089 257.47 412.811 256.982 412.318C256.493 411.824 256.219 411.154 256.219 410.456C256.219 409.758 256.493 409.088 256.982 408.594C257.47 408.101 258.133 407.823 258.823 407.823H381.267Z" fill="#2F3D64"/>
<path d="M252.515 376.88L249.91 418.074H207.198L209.812 376.88H252.515Z" fill="#C6E8E8"/>
<path d="M231.124 408.393C230.397 408.395 229.694 408.132 229.143 407.653L216.467 396.641C216.164 396.378 215.915 396.057 215.735 395.697C215.555 395.337 215.446 394.944 215.416 394.542C215.385 394.139 215.434 393.735 215.558 393.351C215.682 392.968 215.88 392.613 216.14 392.306C216.401 392 216.718 391.748 217.074 391.566C217.43 391.384 217.819 391.274 218.217 391.243C218.615 391.213 219.015 391.262 219.395 391.387C219.774 391.513 220.126 391.713 220.429 391.976L230.807 400.985L252.267 375.839C252.517 375.502 252.833 375.221 253.195 375.013C253.557 374.805 253.958 374.674 254.372 374.629C254.786 374.584 255.205 374.625 255.602 374.75C256 374.876 256.368 375.082 256.683 375.357C256.999 375.632 257.255 375.969 257.436 376.348C257.617 376.727 257.719 377.14 257.736 377.561C257.753 377.981 257.684 378.401 257.534 378.793C257.383 379.186 257.155 379.543 256.862 379.843L233.422 407.302C233.142 407.644 232.791 407.92 232.394 408.108C231.997 408.297 231.563 408.394 231.124 408.393Z" fill="#B18BBF"/>
<path d="M474.317 449.087C475.002 449.129 475.645 449.433 476.116 449.938C476.586 450.443 476.848 451.111 476.848 451.804C476.848 452.498 476.586 453.165 476.116 453.671C475.645 454.176 475.002 454.48 474.317 454.522H264.31C263.943 454.545 263.576 454.491 263.23 454.365C262.884 454.238 262.568 454.042 262.3 453.787C262.033 453.533 261.82 453.225 261.674 452.884C261.528 452.543 261.453 452.176 261.453 451.804C261.453 451.433 261.528 451.065 261.674 450.724C261.82 450.383 262.033 450.076 262.3 449.822C262.568 449.567 262.884 449.37 263.23 449.244C263.576 449.118 263.943 449.064 264.31 449.087H474.317Z" fill="#2F3D64"/>
<path d="M465.295 472.402C465.957 472.443 466.578 472.738 467.032 473.226C467.486 473.714 467.739 474.359 467.739 475.03C467.739 475.7 467.486 476.345 467.032 476.833C466.578 477.321 465.957 477.616 465.295 477.657H264.26C263.598 477.616 262.977 477.321 262.523 476.833C262.069 476.345 261.816 475.7 261.816 475.03C261.816 474.359 262.069 473.714 262.523 473.226C262.977 472.738 263.598 472.443 264.26 472.402H465.295Z" fill="#2F3D64"/>
<path d="M445.39 460.81C446.054 460.851 446.678 461.147 447.134 461.637C447.589 462.127 447.843 462.775 447.843 463.447C447.843 464.12 447.589 464.768 447.134 465.258C446.678 465.748 446.054 466.044 445.39 466.085H264.22C263.556 466.044 262.932 465.748 262.477 465.258C262.021 464.768 261.767 464.12 261.767 463.447C261.767 462.775 262.021 462.127 262.477 461.637C262.932 461.147 263.556 460.851 264.22 460.81H445.39Z" fill="#2F3D64"/>
<path d="M385.119 482.282C385.783 482.324 386.407 482.62 386.863 483.11C387.319 483.6 387.573 484.247 387.573 484.92C387.573 485.593 387.319 486.24 386.863 486.73C386.407 487.221 385.783 487.516 385.119 487.558H262.686C262.021 487.516 261.398 487.221 260.942 486.73C260.486 486.24 260.232 485.593 260.232 484.92C260.232 484.247 260.486 483.6 260.942 483.11C261.398 482.62 262.021 482.324 262.686 482.282H385.119Z" fill="#2F3D64"/>
<g filter="url(#filter1_d_55_17)">
<path d="M566.704 537.892C569.101 537.931 571.351 538.212 572.996 538.677C574.642 539.142 575.558 539.756 575.558 540.394C575.558 541.033 574.642 541.647 572.996 542.112C571.351 542.577 569.101 542.858 566.704 542.897H124.903C122.506 542.858 120.255 542.577 118.61 542.112C116.965 541.647 116.049 541.033 116.049 540.394C116.049 539.756 116.965 539.142 118.61 538.677C120.255 538.212 122.506 537.931 124.903 537.892H566.704Z" fill="#2F3D64" fill-opacity="0.45" shape-rendering="crispEdges"/>
</g>
<path d="M252.515 446.364L249.91 487.558H207.198L209.812 446.364H252.515Z" fill="#C6E8E8"/>
<path d="M229.589 476.465C228.861 476.472 228.156 476.208 227.608 475.725L214.932 464.713C214.629 464.45 214.38 464.129 214.2 463.769C214.019 463.409 213.911 463.017 213.881 462.614C213.85 462.212 213.899 461.807 214.023 461.423C214.147 461.04 214.345 460.685 214.605 460.378C214.865 460.072 215.183 459.82 215.539 459.638C215.895 459.456 216.283 459.346 216.682 459.315C217.08 459.285 217.48 459.334 217.86 459.459C218.239 459.585 218.59 459.785 218.893 460.048L229.272 469.058L250.732 443.921C250.982 443.584 251.298 443.303 251.66 443.095C252.022 442.887 252.423 442.756 252.837 442.711C253.251 442.666 253.67 442.707 254.067 442.832C254.465 442.958 254.833 443.164 255.148 443.439C255.464 443.714 255.72 444.051 255.901 444.43C256.082 444.809 256.184 445.222 256.201 445.643C256.218 446.063 256.149 446.483 255.998 446.876C255.848 447.268 255.62 447.625 255.327 447.925L231.916 475.404C231.628 475.742 231.271 476.012 230.869 476.196C230.467 476.379 230.03 476.471 229.589 476.465Z" fill="#B18BBF"/>
<path d="M167.169 415.952L71.1971 408.944L67.9389 408.704L46.2014 341.242C50.232 352.304 73.7323 403.749 167.169 415.952Z" fill="#CBCED3"/>
<path d="M45.5181 339.081L138.163 346.969L142.827 347.369L148.878 364.387L160.762 397.783L167.209 415.922C73.7323 403.749 50.232 352.305 46.2014 341.203L46.1222 340.983L45.6369 339.481L45.5181 339.081Z" fill="#B4B9C1"/>
<path d="M84.735 416.543L70.7219 415.542C69.8727 415.455 69.0903 415.037 68.5412 414.376C67.992 413.716 67.7194 412.865 67.7813 412.004C67.8433 411.144 68.2348 410.342 68.8727 409.768C69.5106 409.195 70.3446 408.896 71.1973 408.934L167.169 415.942L185.262 417.273C185.909 417.32 186.527 417.56 187.039 417.963C187.55 418.365 187.932 418.913 188.134 419.535C188.337 420.158 188.352 420.827 188.178 421.458C188.003 422.089 187.647 422.654 187.154 423.08C186.831 423.364 186.456 423.581 186.05 423.719C185.643 423.856 185.214 423.911 184.787 423.88L173.834 423.08L122.129 419.275L84.735 416.543Z" fill="#9FA3AA"/>
<path d="M230.391 403.399C229.401 405.921 228.411 408.404 227.47 410.937C224.231 419.235 220.983 427.584 216.447 435.232C215.951 436.207 215.248 437.058 214.388 437.725C212.526 438.986 210.02 438.386 207.891 437.725C202.405 435.933 194.363 432.65 186.678 429.206C182.064 427.144 177.567 425.012 173.804 423.13L184.757 423.93C185.623 423.988 186.477 423.698 187.132 423.122C187.786 422.546 188.19 421.732 188.253 420.857C188.31 419.985 188.026 419.125 187.46 418.464C186.895 417.802 186.095 417.393 185.233 417.323L167.139 415.992L160.692 397.853H160.791C170.853 398.413 180.872 399.414 190.848 400.856C193.402 401.18 195.932 401.672 198.424 402.327C200.249 402.792 202.016 403.463 203.692 404.33C207.653 406.442 210.991 410.156 211.615 414.63L240.284 340.812C240.69 340.624 241.072 340.389 241.423 340.111C242.708 341.011 243.782 342.183 244.573 343.545C246.434 346.899 245.949 351.043 245.276 354.837C243.885 362.39 242.033 369.849 239.73 377.171C236.967 385.99 233.729 394.739 230.391 403.399Z" fill="#B18BBF"/>
<path d="M234.887 336.758C237.19 337.595 239.387 338.704 241.433 340.061C241.082 340.339 240.7 340.574 240.294 340.762L211.625 414.581C211.05 410.106 207.663 406.392 203.702 404.28C202.026 403.413 200.259 402.742 198.434 402.278L198.642 401.567C202.603 384.549 217.25 348.581 223.35 332.243C227.199 333.738 231.045 335.243 234.887 336.758Z" fill="#A276B4"/>
<path d="M224.984 436.985C225.489 443.141 228.767 448.587 231.916 453.913C229.982 455.231 227.804 456.141 225.514 456.588C223.223 457.036 220.867 457.011 218.586 456.515C214.081 455.514 210.159 452.701 206.871 449.438C203.583 446.174 200.79 442.43 197.661 439.007C194.33 435.339 190.622 432.04 186.599 429.166C194.284 432.61 202.325 435.893 207.812 437.685C209.941 438.386 212.446 438.987 214.308 437.685C215.168 437.018 215.872 436.167 216.368 435.193C220.904 427.545 224.152 419.176 227.39 410.897C228.381 408.394 229.371 405.892 230.312 403.359C228.866 410.98 227.427 418.588 225.994 426.183C225.163 429.719 224.823 433.354 224.984 436.985Z" fill="#8251A1"/>
<path d="M223.37 332.193C217.27 348.53 202.623 384.509 198.661 401.517L198.453 402.227C195.962 401.571 193.432 401.08 190.877 400.756C180.908 399.314 170.89 398.313 160.821 397.753H160.722L148.838 364.357C153.542 354.597 161.059 338.78 170.625 323.113V322.853L172.2 322.633C172.428 327.348 172.656 332.704 175.983 335.977C177.222 337.175 178.61 338.205 180.113 339.04C186.319 342.6 193.635 343.628 200.566 341.914C207.497 340.2 213.519 335.874 217.398 329.821V329.77L223.37 332.193Z" fill="#F5AE22"/>
<path d="M170.596 322.913V323.173C161.069 338.84 153.552 354.657 148.809 364.417L142.758 347.399L138.093 346.999V346.889C140.074 343.505 142.078 340.131 144.104 336.768C145.416 334.284 147.084 332.01 149.056 330.021C152.671 326.737 157.652 325.586 162.386 324.555C165.169 323.934 167.862 323.354 170.596 322.913Z" fill="#B18BBF"/>
<g filter="url(#filter2_d_55_17)">
<path d="M45.2113 522.164C68.5805 486.196 94.2759 451.828 122.129 419.285L173.834 423.089C177.568 424.971 182.064 427.093 186.708 429.166C190.731 432.04 194.439 435.338 197.77 439.006C200.9 442.44 203.712 446.174 206.98 449.437C210.248 452.701 214.19 455.504 218.696 456.515C220.976 457.01 223.333 457.035 225.623 456.588C227.914 456.14 230.091 455.23 232.025 453.912C232.451 454.623 232.877 455.323 233.293 456.044C239.73 466.986 244.672 479.069 245.504 491.822C245.715 495.003 245.638 498.196 245.276 501.362C202.841 522.144 145.303 437.294 145.303 437.294C148.274 445.493 144.857 454.643 140.351 462.091C140.351 462.151 140.272 462.211 140.242 462.271C138.648 464.89 136.92 467.423 135.063 469.859C128.685 478.338 121.04 485.876 113.415 493.234C96.2491 509.811 78.8459 526.112 61.205 542.136L59.9671 540.754C52.4197 540.676 45.1621 537.806 39.5665 532.686C39.3387 532.485 39.1208 532.275 38.9128 532.065C39.2099 531.624 39.4971 531.174 39.7744 530.724C41.557 527.847 43.3693 524.994 45.2113 522.164Z" fill="#384778"/>
</g>
<path d="M209.05 537.15C206.916 537.063 204.799 536.727 202.741 536.149V536.209C194.314 535.208 187.144 529.672 180.954 523.836C162.819 506.775 148.881 485.665 140.252 462.19C140.252 462.13 140.331 462.07 140.361 462.01C144.877 454.562 148.284 445.413 145.313 437.214C145.313 437.214 202.85 522.114 245.286 501.282C244.216 510.832 240.502 520.082 233.867 526.919C230.648 530.256 226.783 532.887 222.513 534.647C218.243 536.408 213.66 537.26 209.05 537.15Z" fill="#2F3D64"/>
<g filter="url(#filter3_d_55_17)">
<path d="M202.741 536.18C204.799 536.758 206.916 537.094 209.05 537.181C193.768 538.623 178.383 535.914 164.485 529.332C160.89 527.691 157.507 525.61 154.414 523.136C149.36 518.776 145.409 513.261 142.886 507.049C140.368 500.86 138.57 494.396 137.529 487.788C136.499 481.832 135.756 475.825 135.023 469.819C136.88 467.383 138.609 464.85 140.203 462.231C148.831 485.705 162.77 506.816 180.905 523.876C187.124 529.713 194.294 535.259 202.692 536.25L202.741 536.18Z" fill="#2B3952"/>
</g>
<path d="M84.7349 416.543L122.129 419.286C94.2758 451.829 68.5804 486.197 45.2112 522.165C54.6786 490.532 65.2751 459.288 77.0005 428.436C77.96 425.517 79.2917 422.737 80.9618 420.167C81.984 418.731 83.2639 417.502 84.7349 416.543Z" fill="#2B3952"/>
<g filter="url(#filter4_d_55_17)">
<path d="M60.2539 542.236C60.6203 544.278 60.6203 546.37 60.2539 548.412C60.1973 549.027 59.9271 549.601 59.4914 550.034C58.9718 550.363 58.3584 550.508 57.7484 550.444L7.74714 550.735C6.73233 550.872 5.70367 550.618 4.8653 550.024C4.57268 549.719 4.34521 549.356 4.197 548.958C4.04879 548.56 3.98301 548.136 4.00373 547.711C4.06843 546.457 4.43058 545.236 5.05966 544.152C5.68874 543.069 6.5663 542.154 7.61839 541.485C7.73723 541.395 7.86598 541.325 7.98482 541.245C9.99636 540.051 12.1774 539.176 14.4516 538.652C20.6807 536.87 26.9197 535.218 33.2677 533.647C34.9953 533.174 36.7569 532.84 38.5362 532.646C38.8828 532.646 39.2492 532.646 39.5958 532.646C45.1915 537.766 52.4491 540.636 59.9964 540.714L61.2343 542.096L60.2539 542.236Z" fill="#54366E"/>
</g>
<path d="M38.8733 532.015C38.7544 532.225 38.6059 532.456 38.4672 532.666C36.6879 532.86 34.9263 533.195 33.1987 533.667C26.9003 535.209 20.6613 536.86 14.3826 538.672C12.1084 539.197 9.92737 540.071 7.91583 541.265C7.75557 540.311 7.87233 539.33 8.25197 538.442C8.63162 537.554 9.25788 536.796 10.0549 536.26C11.6758 535.206 13.492 534.498 15.3928 534.178C23.1846 532.175 31.1395 530.889 39.1604 530.333L39.6754 530.674C39.4575 531.124 39.1704 531.575 38.8733 532.015Z" fill="#39244F"/>
<path d="M38.8728 532.015C39.0808 532.225 39.2987 532.436 39.5264 532.636C39.1798 532.636 38.8134 532.636 38.4668 532.636C38.6054 532.456 38.8035 532.225 38.8728 532.015Z" fill="#39244F"/>
<path d="M167.714 225.61C161.207 231.967 157.86 241.066 156.82 250.146C155.78 259.225 156.771 268.706 157.81 277.955C158.355 282.871 158.939 287.866 160.781 292.451C162.973 297.494 166.626 301.747 171.259 304.648C175.891 307.548 181.285 308.961 186.728 308.698C185.965 310.48 185.292 312.272 184.688 314.104C171.625 313.103 159.93 304.023 153.631 292.341C147.224 280.408 145.966 266.213 147.689 252.729C149.264 240.085 153.552 227.412 162.099 218.012C167.492 212.078 174.344 207.694 181.958 205.307C189.572 202.92 197.676 202.614 205.445 204.422C213.213 206.23 220.37 210.086 226.185 215.597C232 221.109 236.267 228.08 238.551 235.801C241.671 246.382 241.027 258.104 246.088 267.835C249.534 274.452 255.278 279.497 261.2 283.962C267.122 288.426 273.401 292.521 278.511 297.917C283.621 303.312 287.533 310.35 287.424 317.818C287.295 325.065 282.472 332.453 275.54 333.975C281.65 339.1 284.274 347.9 282.64 355.748C281.006 363.596 275.332 370.504 268.192 374.228C261.051 377.952 247.652 378.662 239.779 377.081C242.083 369.759 243.935 362.3 245.325 354.747C245.998 350.953 246.484 346.809 244.622 343.455C243.832 342.093 242.757 340.921 241.473 340.021C243.721 338.289 244.761 335.176 245.008 332.263C245.345 327.868 244.464 323.464 242.465 319.547C240.465 315.629 237.427 312.35 233.689 310.079C235.274 307.563 236.316 304.736 236.748 301.785C237.179 298.834 236.99 295.823 236.193 292.951C235.396 290.078 234.008 287.408 232.121 285.114C230.234 282.82 227.89 280.953 225.241 279.637C228.14 278.042 230.559 275.686 232.244 272.818C233.93 269.95 234.819 266.676 234.818 263.34C234.818 261.137 234.263 258.795 232.649 257.333C231.764 256.583 230.682 256.11 229.536 255.971C228.389 255.832 227.227 256.034 226.192 256.553C224.455 257.44 223.099 258.939 222.379 260.767C200.926 255.213 181.78 242.9 167.714 225.61Z" fill="#28397D"/>
<path d="M233.62 310.119C237.357 312.39 240.396 315.668 242.395 319.586C244.395 323.504 245.275 327.908 244.939 332.303C244.691 335.216 243.651 338.309 241.403 340.061C239.358 338.703 237.16 337.595 234.857 336.758C231.022 335.249 227.192 333.728 223.37 332.193L217.428 329.83L211.486 327.478C208.833 326.334 206.081 325.439 203.266 324.805L203.167 324.605C202.177 318.819 201.276 313.012 200.325 307.226C203.71 307.121 207.038 306.324 210.109 304.881C213.181 303.439 215.93 301.382 218.193 298.835C220.455 296.288 222.183 293.304 223.272 290.062C224.361 286.821 224.788 283.39 224.528 279.977H224.608C224.796 279.877 224.984 279.797 225.172 279.687C227.821 281.003 230.165 282.869 232.052 285.163C233.939 287.457 235.327 290.128 236.124 293.001C236.921 295.873 237.11 298.883 236.678 301.835C236.247 304.786 235.205 307.613 233.62 310.129V310.119Z" fill="#233166"/>
<path d="M175.834 208.031C176.48 210.934 177.46 213.749 178.756 216.42C180.025 219.093 181.495 221.663 183.153 224.108C186.402 229.049 190.046 233.712 194.046 238.053C198.028 242.401 202.35 246.419 206.97 250.066C209.248 251.928 211.644 253.66 214.09 255.311C216.536 256.963 219.042 258.525 221.587 260.067C218.907 258.805 216.286 257.414 213.724 255.892C211.199 254.34 208.713 252.699 206.326 250.887C196.703 243.775 188.529 234.852 182.252 224.609C180.681 222.048 179.304 219.371 178.132 216.6C177 213.857 176.227 210.977 175.834 208.031Z" fill="#34549C"/>
<path d="M225.172 279.677C224.984 279.787 224.796 279.867 224.608 279.967H224.528C224.788 283.38 224.361 286.811 223.272 290.052C222.183 293.294 220.455 296.278 218.193 298.825C215.93 301.372 213.181 303.429 210.109 304.871C207.038 306.314 203.71 307.111 200.325 307.216C201.315 313.002 202.217 318.809 203.167 324.595L203.266 324.795C206.081 325.429 208.833 326.324 211.486 327.468L217.428 329.82V329.87C213.548 335.924 207.527 340.25 200.596 341.964C193.665 343.677 186.348 342.649 180.142 339.09C178.64 338.255 177.251 337.225 176.013 336.027C172.685 332.753 172.457 327.398 172.23 322.683C175.648 322.171 179.118 322.124 182.549 322.543C183.125 319.685 183.866 316.864 184.767 314.094C185.371 312.262 186.045 310.47 186.807 308.688C181.364 308.95 175.97 307.538 171.338 304.637C166.705 301.737 163.052 297.484 160.861 292.441C158.979 287.856 158.395 282.86 157.89 277.945C156.84 268.695 155.8 259.365 156.899 250.136C157.999 240.906 161.316 231.956 167.793 225.6C181.815 242.878 200.906 255.203 222.31 260.797C223.029 258.969 224.386 257.47 226.123 256.583C227.158 256.064 228.32 255.862 229.466 256.001C230.613 256.139 231.695 256.613 232.58 257.363C234.194 258.835 234.709 261.177 234.749 263.37C234.751 266.707 233.863 269.984 232.178 272.854C230.492 275.724 228.072 278.081 225.172 279.677ZM178.726 299.008C188.956 300.439 188.798 289.778 188.798 289.778L169.041 289.447C169.041 289.447 168.536 297.636 178.726 299.008Z" fill="#FFF1D9"/>
<path d="M188.798 289.778C188.798 289.778 188.956 300.439 178.726 299.007C168.496 297.576 169.041 289.447 169.041 289.447L188.798 289.778Z" fill="white"/>
<path d="M177.894 281.619C165.466 280.618 165.565 273.781 165.565 273.781L173.24 273.401L174.745 260.227L177.894 281.619Z" fill="#EFCDAD"/>
<path d="M202.652 291.169C207.854 291.169 212.07 286.907 212.07 281.649C212.07 276.391 207.854 272.129 202.652 272.129C197.451 272.129 193.234 276.391 193.234 281.649C193.234 286.907 197.451 291.169 202.652 291.169Z" fill="#FEDDC7"/>
<path d="M164.586 266.211C166.071 266.13 167.163 263.982 167.025 261.415C166.886 258.848 165.57 256.833 164.084 256.915C162.599 256.997 161.507 259.145 161.645 261.712C161.784 264.279 163.1 266.293 164.586 266.211Z" fill="#2B3952"/>
<path d="M189.079 265.835C190.564 265.753 191.656 263.606 191.518 261.039C191.38 258.472 190.063 256.457 188.578 256.539C187.092 256.621 186 258.768 186.139 261.335C186.277 263.902 187.593 265.917 189.079 265.835Z" fill="#2B3952"/>
<path d="M158.821 255.811C158.645 254.783 158.816 253.726 159.306 252.808C159.788 251.871 160.519 251.088 161.415 250.545C162.323 249.98 163.382 249.714 164.446 249.785C165.478 249.835 166.462 250.245 167.228 250.946C166.238 251.386 165.456 251.607 164.743 251.947C164.08 252.228 163.441 252.563 162.831 252.948C161.603 253.669 160.484 254.59 158.821 255.811Z" fill="#233166"/>
<path d="M194.838 257.013C195.15 256.034 195.133 254.978 194.789 254.01C194.446 253.013 193.836 252.133 193.026 251.467C192.207 250.776 191.197 250.357 190.134 250.266C189.108 250.164 188.079 250.426 187.223 251.006C188.114 251.597 188.877 251.927 189.52 252.368C190.151 252.723 190.751 253.131 191.313 253.589C192.392 254.48 193.363 255.591 194.838 257.013Z" fill="#233166"/>
<defs>
<filter id="filter0_d_55_17" x="170.676" y="47.3906" width="347.214" height="478.75" filterUnits="userSpaceOnUse" color-interpolation-filters="sRGB">
<feFlood flood-opacity="0" result="BackgroundImageFix"/>
<feColorMatrix in="SourceAlpha" type="matrix" values="0 0 0 0 0 0 0 0 0 0 0 0 0 0 0 0 0 0 127 0" result="hardAlpha"/>
<feOffset dy="4"/>
<feGaussianBlur stdDeviation="2"/>
<feComposite in2="hardAlpha" operator="out"/>
<feColorMatrix type="matrix" values="0 0 0 0 0 0 0 0 0 0 0 0 0 0 0 0 0 0 0.25 0"/>
<feBlend mode="normal" in2="BackgroundImageFix" result="effect1_dropShadow_55_17"/>
<feBlend mode="normal" in="SourceGraphic" in2="effect1_dropShadow_55_17" result="shape"/>
</filter>
<filter id="filter1_d_55_17" x="112.049" y="537.892" width="467.509" height="13.0054" filterUnits="userSpaceOnUse" color-interpolation-filters="sRGB">
<feFlood flood-opacity="0" result="BackgroundImageFix"/>
<feColorMatrix in="SourceAlpha" type="matrix" values="0 0 0 0 0 0 0 0 0 0 0 0 0 0 0 0 0 0 127 0" result="hardAlpha"/>
<feOffset dy="4"/>
<feGaussianBlur stdDeviation="2"/>
<feComposite in2="hardAlpha" operator="out"/>
<feColorMatrix type="matrix" values="0 0 0 0 0 0 0 0 0 0 0 0 0 0 0 0 0 0 0.25 0"/>
<feBlend mode="normal" in2="BackgroundImageFix" result="effect1_dropShadow_55_17"/>
<feBlend mode="normal" in="SourceGraphic" in2="effect1_dropShadow_55_17" result="shape"/>
</filter>
<filter id="filter2_d_55_17" x="34.9128" y="419.285" width="214.707" height="130.851" filterUnits="userSpaceOnUse" color-interpolation-filters="sRGB">
<feFlood flood-opacity="0" result="BackgroundImageFix"/>
<feColorMatrix in="SourceAlpha" type="matrix" values="0 0 0 0 0 0 0 0 0 0 0 0 0 0 0 0 0 0 127 0" result="hardAlpha"/>
<feOffset dy="4"/>
<feGaussianBlur stdDeviation="2"/>
<feComposite in2="hardAlpha" operator="out"/>
<feColorMatrix type="matrix" values="0 0 0 0 0 0 0 0 0 0 0 0 0 0 0 0 0 0 0.25 0"/>
<feBlend mode="normal" in2="BackgroundImageFix" result="effect1_dropShadow_55_17"/>
<feBlend mode="normal" in="SourceGraphic" in2="effect1_dropShadow_55_17" result="shape"/>
</filter>
<filter id="filter3_d_55_17" x="131.023" y="462.231" width="82.0264" height="83.3271" filterUnits="userSpaceOnUse" color-interpolation-filters="sRGB">
<feFlood flood-opacity="0" result="BackgroundImageFix"/>
<feColorMatrix in="SourceAlpha" type="matrix" values="0 0 0 0 0 0 0 0 0 0 0 0 0 0 0 0 0 0 127 0" result="hardAlpha"/>
<feOffset dy="4"/>
<feGaussianBlur stdDeviation="2"/>
<feComposite in2="hardAlpha" operator="out"/>
<feColorMatrix type="matrix" values="0 0 0 0 0 0 0 0 0 0 0 0 0 0 0 0 0 0 0.25 0"/>
<feBlend mode="normal" in2="BackgroundImageFix" result="effect1_dropShadow_55_17"/>
<feBlend mode="normal" in="SourceGraphic" in2="effect1_dropShadow_55_17" result="shape"/>
</filter>
<filter id="filter4_d_55_17" x="0" y="532.646" width="65.2344" height="26.1255" filterUnits="userSpaceOnUse" color-interpolation-filters="sRGB">
<feFlood flood-opacity="0" result="BackgroundImageFix"/>
<feColorMatrix in="SourceAlpha" type="matrix" values="0 0 0 0 0 0 0 0 0 0 0 0 0 0 0 0 0 0 127 0" result="hardAlpha"/>
<feOffset dy="4"/>
<feGaussianBlur stdDeviation="2"/>
<feComposite in2="hardAlpha" operator="out"/>
<feColorMatrix type="matrix" values="0 0 0 0 0 0 0 0 0 0 0 0 0 0 0 0 0 0 0.25 0"/>
<feBlend mode="normal" in2="BackgroundImageFix" result="effect1_dropShadow_55_17"/>
<feBlend mode="normal" in="SourceGraphic" in2="effect1_dropShadow_55_17" result="shape"/>
</filter>
</defs>
</svg>
