<svg width="24" height="24" viewBox="0 0 24 24" fill="none" xmlns="http://www.w3.org/2000/svg">
<g clip-path="url(#clip0_61_426)">
<path d="M21.7455 18.1639H2.1082V6.73049C2.09934 6.58735 2.06387 5.3125 2.9593 4.35077C3.60206 3.65743 4.55511 3.30405 5.79186 3.30405H17.9732C18.1904 3.27274 19.4582 3.12512 20.4822 3.98844C21.32 4.69968 21.7455 5.87164 21.7455 7.47751V18.1639ZM2.7288 17.5376H21.1249V7.47751C21.1249 6.06846 20.7747 5.05753 20.0877 4.47154C19.2144 3.729 18.0619 3.92135 18.053 3.92135L18.0264 3.92582H17.9998H5.79186C4.73686 3.92582 3.93895 4.20763 3.41588 4.77125C2.67117 5.57194 2.7288 6.69023 2.7288 6.69918V6.71707V17.5376Z" fill="#F6AE22"/>
<path d="M1.21278 17.6809V19.1302C1.21278 19.1302 1.14628 20.7181 2.78642 20.7852C4.42656 20.8523 20.9609 20.7852 20.9609 20.7852C20.9609 20.7852 22.805 20.5795 22.805 18.7186C22.805 16.8578 22.805 17.6853 22.805 17.6853H1.21278V17.6809Z" fill="#F6AE22"/>
<path d="M6.62966 7.87598C5.15797 7.87598 3.96555 9.07926 3.96555 10.5643C3.96555 12.0494 5.15797 13.2527 6.62966 13.2527C8.10135 13.2527 9.29377 12.0494 9.29377 10.5643C9.29377 9.07926 8.10135 7.87598 6.62966 7.87598ZM6.06226 11.9108V9.38791L7.72456 10.5688L6.06226 11.9108Z" fill="#F6AE22"/>
<path d="M15.2293 7.719C15.2293 7.719 12.6494 6.36363 10.1404 7.61164V14.0619C10.1404 14.0619 13.1503 13.2076 15.1229 14.0619C15.1229 14.0619 17.7205 13.2299 19.9103 14.1693V7.61164C19.9103 7.61164 17.8934 6.36363 15.2293 7.719ZM14.458 8.65836L14.0546 9.09673C12.6583 7.78162 11.0891 9.05647 11.0226 9.11015L10.6458 8.64494C11.3417 8.0679 13.0395 7.32536 14.458 8.65836ZM14.458 9.969L14.0546 10.4074C12.6583 9.09226 11.0891 10.3671 11.0226 10.4208L10.6458 9.95558C11.3417 9.37854 13.0395 8.63599 14.458 9.969ZM14.458 11.3959L14.0546 11.8343C12.6583 10.5192 11.0891 11.794 11.0226 11.8477L10.6458 11.3825C11.3417 10.8055 13.0395 10.0629 14.458 11.3959ZM14.2053 13.2568C12.809 11.9417 11.2398 13.2165 11.1733 13.2702L10.7965 12.805C11.4969 12.2279 13.1902 11.4809 14.6087 12.8184L14.2053 13.2568ZM18.8819 13.3641C17.4856 12.049 15.9164 13.3239 15.8499 13.3775L15.4731 12.9123C16.1735 12.3353 17.8668 11.5883 19.2853 12.9258L18.8819 13.3641ZM18.8819 11.8343C17.4856 10.5192 15.9164 11.794 15.8499 11.8477L15.4731 11.3825C16.1735 10.8055 17.8668 10.0585 19.2853 11.3959L18.8819 11.8343ZM18.9927 10.5416C17.5964 9.22645 16.0272 10.5013 15.9607 10.555L15.5839 10.0898C16.2843 9.51273 17.9776 8.76572 19.3961 10.1032L18.9927 10.5416ZM18.9927 9.09673C17.5964 7.78162 16.0272 9.05647 15.9607 9.11015L15.5839 8.64494C16.2843 8.0679 17.9776 7.32089 19.3961 8.65836L18.9927 9.09673Z" fill="#F6AE22"/>
</g>
<defs>
<clipPath id="clip0_61_426">
<rect width="22" height="18" fill="white" transform="translate(1 3)"/>
</clipPath>
</defs>
</svg>
