<svg width="24" height="24" viewBox="0 0 24 24" fill="none" xmlns="http://www.w3.org/2000/svg">
<path d="M9.084 9.96467C9.084 9.24106 9.084 8.60793 9.084 7.97477C9.084 7.61297 9.08404 7.61297 9.33405 7.52252C9.75072 7.43207 10.084 7.3416 10.5007 7.25115C10.5007 7.1607 10.5007 7.07026 10.5007 6.97981C10.5007 5.80396 10.5007 4.53765 10.5007 3.3618C10.5007 2.99999 10.584 3 10.7507 3C11.584 3 12.4174 3 13.2507 3C13.4174 3 13.5007 3.09044 13.5007 3.3618C13.5007 4.35675 13.5007 5.26127 13.5007 6.25622C13.5007 6.34667 13.5007 6.43711 13.5007 6.52756C13.5841 6.52756 13.6674 6.52756 13.6674 6.52756C14.2507 6.52756 14.7507 6.52756 15.3341 6.52756C15.5841 6.52756 15.6674 6.52756 15.6674 6.97981C15.6674 7.79387 15.6674 8.51748 15.6674 9.33153C15.6674 9.51243 15.6674 9.60287 15.8341 9.69333C16.3341 9.87423 16.8341 10.1456 17.3341 10.3265C17.5841 10.4169 17.5841 10.4169 17.5841 10.8692C17.5841 12.7686 17.5841 14.6681 17.5841 16.4771C17.5841 16.5676 17.5841 16.658 17.5841 16.7484C17.6674 16.7484 17.7507 16.7484 17.8341 16.7484C17.9174 16.7484 18.0008 16.9294 18.0008 17.0198C18.0008 17.1103 17.9174 17.2007 17.8341 17.2912C17.8341 17.2912 17.7508 17.2912 17.6674 17.2912C14.0841 17.2912 10.5007 17.2912 6.91734 17.2912C6.75067 17.2912 6.66732 17.3816 6.58398 17.0198C6.58398 16.8389 6.66734 16.7484 6.91734 16.7484H7.00065C7.00065 16.658 7.00065 16.5676 7.00065 16.4771C7.00065 14.4872 7.00065 12.4973 7.00065 10.5074C7.00065 10.1456 7.08401 10.0551 7.33401 10.0551C7.83401 10.0551 8.33401 10.0551 8.83401 10.0551C8.91735 9.96467 9.00067 9.96467 9.084 9.96467ZM11.6674 16.658C12.0841 16.658 12.5007 16.658 12.9174 16.658C13.1674 16.658 13.1674 16.658 13.1674 16.3867C13.1674 12.1355 13.1674 7.88431 13.1674 3.63314C13.1674 3.54269 13.1674 3.45225 13.1674 3.3618C12.4174 3.3618 11.6674 3.3618 10.9174 3.3618C10.9174 4.6281 10.9174 5.80396 10.9174 7.07027C11.084 6.97982 11.2507 6.97981 11.4174 6.97981C11.6674 6.88936 11.7507 6.97981 11.7507 7.34161C11.7507 10.3265 11.7507 13.3113 11.7507 16.2962C11.6674 16.4771 11.6674 16.5676 11.6674 16.658ZM13.5007 6.97981C13.5007 7.07026 13.5007 7.16072 13.5007 7.16072C13.5007 10.236 13.5007 13.3113 13.5007 16.4771C13.5007 16.658 13.584 16.658 13.6674 16.658C14.1674 16.658 14.6674 16.658 15.0841 16.658C15.2507 16.658 15.2507 16.5676 15.2507 16.3867C15.2507 13.3113 15.2507 10.3265 15.2507 7.25115C15.2507 7.1607 15.2507 7.07026 15.2507 6.97981C14.6674 6.97981 14.0841 6.97981 13.5007 6.97981ZM9.41736 16.658C10.084 16.658 10.6674 16.658 11.334 16.658C11.334 13.5827 11.334 10.5978 11.334 7.52252C11.2507 7.52252 11.2507 7.52252 11.2507 7.52252C10.7507 7.70342 10.1674 7.79387 9.66735 7.97477C9.50068 7.97477 9.50067 8.06522 9.50067 8.33657C9.50067 11.0501 9.50067 13.7636 9.50067 16.4771C9.41734 16.4771 9.41736 16.5676 9.41736 16.658ZM7.41732 16.658C8.00066 16.658 8.50067 16.658 9.084 16.658C9.084 14.5777 9.084 12.5877 9.084 10.5074C8.50067 10.5074 8.00066 10.5074 7.41732 10.5074C7.41732 12.5877 7.41732 14.5777 7.41732 16.658ZM15.5841 10.0551C15.5841 12.3164 15.5841 14.4872 15.5841 16.658C16.0841 16.658 16.6674 16.658 17.1674 16.658C17.1674 14.6681 17.1674 12.6782 17.1674 10.6883C16.6674 10.5074 16.1674 10.236 15.5841 10.0551Z" fill="#F5AE22"/>
<path d="M12.5833 4.62803C12.5833 4.71848 12.5833 4.80895 12.5833 4.8994C12.5833 4.98985 12.5 5.08029 12.4166 5.08029C12.3333 5.08029 12.25 4.98985 12.25 4.8994C12.25 4.7185 12.25 4.53759 12.25 4.35669C12.25 4.26624 12.3333 4.17578 12.4166 4.17578C12.5 4.17578 12.5833 4.26624 12.5833 4.35669C12.5833 4.44714 12.5833 4.53758 12.5833 4.62803Z" fill="#F5AE22"/>
<path d="M12.5833 9.69346C12.5833 9.78391 12.5833 9.87435 12.5833 9.9648C12.5833 10.0553 12.5 10.1457 12.4166 10.1457C12.3333 10.1457 12.25 10.0553 12.25 9.9648C12.25 9.7839 12.25 9.60302 12.25 9.42212C12.25 9.33167 12.3333 9.24121 12.4166 9.24121C12.5 9.24121 12.5833 9.33167 12.5833 9.42212C12.5833 9.51257 12.5833 9.60301 12.5833 9.69346Z" fill="#F5AE22"/>
<path d="M12.5833 11.4118C12.5833 11.7737 12.5 11.8641 12.4166 11.8641C12.25 11.8641 12.25 11.5927 12.25 11.4118C12.25 11.3214 12.25 11.231 12.25 11.1405C12.25 10.9596 12.3333 10.8691 12.4166 10.8691C12.5 10.8691 12.5833 10.9596 12.5833 11.1405C12.5833 11.3214 12.5833 11.3214 12.5833 11.4118Z" fill="#F5AE22"/>
<path d="M11.6664 4.62803C11.6664 4.71848 11.6664 4.80895 11.6664 4.8994C11.6664 4.98985 11.583 5.08029 11.4997 5.08029C11.4164 5.08029 11.333 4.98985 11.333 4.8994C11.333 4.7185 11.333 4.53759 11.333 4.35669C11.333 4.26624 11.4164 4.17578 11.4997 4.17578C11.583 4.17578 11.6664 4.26624 11.6664 4.35669C11.7497 4.44714 11.6664 4.53758 11.6664 4.62803Z" fill="#F5AE22"/>
<path d="M12.25 7.97484C12.25 7.88439 12.25 7.79392 12.25 7.70347C12.25 7.61302 12.3333 7.52258 12.4166 7.43213C12.5 7.43213 12.5833 7.52257 12.5833 7.70347C12.5833 7.88437 12.5833 7.97482 12.5833 8.15572C12.5833 8.33662 12.5 8.42709 12.4166 8.42709C12.3333 8.42709 12.25 8.33662 12.25 8.15572C12.25 8.15572 12.25 8.06529 12.25 7.97484Z" fill="#F5AE22"/>
<path d="M11.6664 6.34639C11.6664 6.43684 11.6664 6.52731 11.6664 6.61776C11.6664 6.70821 11.583 6.79864 11.4997 6.79864C11.4164 6.79864 11.333 6.70821 11.333 6.61776C11.333 6.43686 11.333 6.25595 11.333 5.9846C11.333 5.89414 11.4164 5.80371 11.4997 5.80371C11.583 5.80371 11.583 5.89414 11.6664 5.9846C11.7497 6.07505 11.6664 6.25594 11.6664 6.34639Z" fill="#F5AE22"/>
<path d="M12.25 6.25596C12.25 6.16551 12.25 6.07505 12.25 5.9846C12.25 5.89414 12.3333 5.80371 12.4166 5.80371C12.5 5.80371 12.5833 5.89414 12.5833 5.9846C12.5833 6.1655 12.5833 6.3464 12.5833 6.43685C12.5833 6.61775 12.5 6.70822 12.4166 6.70822C12.3333 6.70822 12.25 6.61775 12.25 6.43685C12.25 6.43685 12.25 6.34641 12.25 6.25596Z" fill="#F5AE22"/>
<path d="M14.0833 13.4016C14.0833 13.492 14.0833 13.5825 14.0833 13.6729C14.0833 13.7634 14 13.8538 13.9167 13.8538C13.8333 13.8538 13.75 13.7634 13.75 13.6729C13.75 13.492 13.75 13.3111 13.75 13.1302C13.75 13.0398 13.8333 12.9493 13.9167 12.8589C14 12.8589 14.0833 12.9493 14.0833 13.1302C14.0833 13.2207 14.0833 13.3111 14.0833 13.4016Z" fill="#F5AE22"/>
<path d="M14.0833 11.7731C14.0833 11.8636 14.0833 11.8636 14.0833 11.9541C14.0833 12.135 14 12.2254 13.9167 12.2254C13.8333 12.2254 13.75 12.135 13.75 11.9541C13.75 11.7732 13.75 11.6827 13.75 11.5018C13.75 11.3209 13.8333 11.2305 13.9167 11.2305C14 11.2305 14.0833 11.3209 14.0833 11.5018C14.0833 11.5923 14.0833 11.6827 14.0833 11.7731Z" fill="#F5AE22"/>
<path d="M14.0833 8.33665C14.0833 8.4271 14.0833 8.51757 14.0833 8.51757C14 8.60802 14 8.78891 13.9167 8.78891C13.8333 8.78891 13.75 8.69847 13.75 8.51757C13.75 8.33666 13.75 8.24621 13.75 8.06531C13.75 7.88441 13.8333 7.79395 13.9167 7.79395C14 7.79395 14.0833 7.88441 14.0833 8.06531C14.0833 8.15576 14.0833 8.2462 14.0833 8.33665Z" fill="#F5AE22"/>
<path d="M15.0003 8.33604C15.0003 8.42649 15.0003 8.51693 15.0003 8.60738C15.0003 8.69783 14.917 8.78829 14.8337 8.78829C14.7503 8.78829 14.667 8.69783 14.667 8.60738C14.667 8.42648 14.667 8.24558 14.667 8.15513C14.667 7.97423 14.7503 7.88379 14.8337 7.88379C14.917 7.88379 15.0003 7.97423 15.0003 8.15513C15.0003 8.15513 15.0003 8.24559 15.0003 8.33604Z" fill="#F5AE22"/>
<path d="M14.0833 10.0553C14.0833 10.1457 14.0833 10.2362 14.0833 10.3266C14.0833 10.4171 14 10.5075 13.9167 10.5075C13.8333 10.5075 13.75 10.4171 13.75 10.3266C13.75 10.1457 13.75 9.96484 13.75 9.78394C13.75 9.69349 13.8333 9.60303 13.9167 9.60303C14 9.60303 14.0833 9.69349 14.0833 9.78394C14.0833 9.78394 14.0833 9.96483 14.0833 10.0553Z" fill="#F5AE22"/>
<path d="M14.584 11.6827C14.584 11.5923 14.584 11.5018 14.584 11.4114C14.584 11.3209 14.6673 11.2305 14.7507 11.2305C14.834 11.2305 14.9173 11.3209 14.9173 11.4114C14.9173 11.5923 14.9173 11.7732 14.9173 11.9541C14.9173 12.135 14.834 12.2254 14.7507 12.2254C14.6673 12.2254 14.6673 12.0445 14.584 11.9541C14.584 11.8636 14.584 11.7732 14.584 11.6827Z" fill="#F5AE22"/>
<path d="M14.584 9.96407C14.584 9.87362 14.584 9.78318 14.584 9.69273C14.584 9.60228 14.6673 9.42139 14.7507 9.42139C14.834 9.42139 14.9173 9.51182 14.9173 9.60227C14.9173 9.78317 14.9173 9.96408 14.9173 10.145C14.9173 10.2354 14.834 10.3259 14.7507 10.3259C14.6673 10.3259 14.584 10.2354 14.584 10.0545C14.584 10.145 14.584 10.0545 14.584 9.96407Z" fill="#F5AE22"/>
<path d="M9.75 10.779C9.75 10.6886 9.75 10.5981 9.75 10.5077C9.75 10.4172 9.83329 10.2363 9.91663 10.2363C9.99996 10.2363 10.0833 10.3268 10.0833 10.4172C10.0833 10.5981 10.0833 10.779 10.0833 10.9599C10.0833 11.0504 9.99996 11.1408 9.91663 11.1408C9.83329 11.1408 9.75 11.0504 9.75 10.8695C9.75 10.9599 9.75 10.8695 9.75 10.779Z" fill="#F5AE22"/>
<path d="M9.75 9.15049C9.75 9.06004 9.75 8.9696 9.75 8.87915C9.75 8.7887 9.83329 8.69824 9.91663 8.69824C9.99996 8.69824 10.0833 8.7887 10.0833 8.87915C10.0833 9.06005 10.0833 9.24096 10.0833 9.42186C10.0833 9.51231 9.99996 9.60275 9.91663 9.60275C9.83329 9.60275 9.75 9.51231 9.75 9.33141C9.75 9.24096 9.75 9.15049 9.75 9.15049Z" fill="#F5AE22"/>
<path d="M9.75 12.4073C9.75 12.3169 9.75 12.2264 9.75 12.136C9.75 12.0455 9.83329 11.9551 9.91663 11.9551C9.99996 11.9551 10.0833 12.0455 10.0833 12.136C10.0833 12.3169 10.0833 12.4978 10.0833 12.6787C10.0833 12.8596 9.99996 12.95 9.91663 12.95C9.83329 12.95 9.83333 12.7691 9.75 12.6787C9.75 12.5882 9.75 12.4978 9.75 12.4073Z" fill="#F5AE22"/>
<path d="M11.0003 9.15049C11.0003 9.24094 11.0003 9.33141 11.0003 9.42186C11.0003 9.51231 10.917 9.60275 10.8337 9.60275C10.7503 9.60275 10.667 9.51231 10.667 9.42186C10.667 9.24096 10.667 9.06005 10.667 8.87915C10.667 8.7887 10.7503 8.69824 10.8337 8.69824C10.917 8.69824 10.917 8.7887 11.0003 8.87915C11.0003 8.9696 11.0003 9.06004 11.0003 9.15049Z" fill="#F5AE22"/>
<path d="M11.0003 10.7784C11.0003 10.8689 11.0003 10.9593 11.0003 11.0498C11.0003 11.1402 10.917 11.2307 10.8337 11.2307C10.7503 11.2307 10.667 11.1402 10.667 11.0498C10.667 10.8689 10.667 10.688 10.667 10.5071C10.667 10.4166 10.7503 10.3262 10.8337 10.3262C10.917 10.3262 11.0003 10.4166 11.0003 10.5071C11.0003 10.5975 11.0003 10.688 11.0003 10.7784Z" fill="#F5AE22"/>
<path d="M11.0003 12.4073C11.0003 12.4978 11.0003 12.5882 11.0003 12.6787C11.0003 12.7691 10.917 12.8596 10.8337 12.95C10.7503 12.95 10.667 12.8596 10.667 12.7691C10.667 12.5882 10.667 12.4073 10.667 12.2264C10.667 12.136 10.7503 12.0455 10.8337 11.9551C10.917 11.9551 11.0003 12.0455 11.0003 12.2264C11.0003 12.3169 11.0003 12.3169 11.0003 12.4073Z" fill="#F5AE22"/>
<path d="M11.0003 14.1256C11.0003 14.216 11.0003 14.3065 11.0003 14.397C11.0003 14.4874 10.917 14.5778 10.8337 14.5778C10.7503 14.5778 10.667 14.4874 10.667 14.397C10.667 14.2161 10.667 14.0352 10.667 13.8543C10.667 13.7638 10.7503 13.6733 10.8337 13.6733C10.917 13.6733 10.917 13.7638 11.0003 13.9447C11.0003 13.9447 11.0003 14.0351 11.0003 14.1256Z" fill="#F5AE22"/>
<path d="M7.91692 13.5826C7.91692 13.4922 7.91692 13.4017 7.91692 13.3113C7.91692 13.2208 8.00026 13.1304 8.0836 13.1304C8.16693 13.1304 8.25023 13.2208 8.25023 13.3113C8.25023 13.4922 8.25023 13.6731 8.25023 13.854C8.25023 14.0349 8.16693 14.1253 8.0836 14.1253C8.00026 14.1253 8.00025 13.9444 7.91692 13.854C7.83359 13.7635 7.91692 13.6731 7.91692 13.5826Z" fill="#F5AE22"/>
<path d="M7.91797 11.593C7.91797 11.5026 7.91797 11.4121 7.91797 11.3216C7.91797 11.2312 8.00131 11.1407 8.08465 11.0503C8.16798 11.0503 8.25127 11.1408 8.25127 11.2312C8.25127 11.4121 8.25127 11.593 8.25127 11.7739C8.25127 11.9548 8.16798 12.0453 8.08465 12.0453C8.00131 12.0453 7.91797 11.9548 7.91797 11.7739C7.91797 11.7739 7.91797 11.6835 7.91797 11.593Z" fill="#F5AE22"/>
<path d="M16.1673 11.8635C16.1673 11.954 16.1673 12.0444 16.1673 12.1349C16.1673 12.2253 16.084 12.3158 16.0007 12.3158C15.9173 12.3158 15.834 12.2253 15.834 12.1349C15.834 11.954 15.834 11.7731 15.834 11.5017C15.834 11.4113 15.9173 11.3208 16.0007 11.3208C16.084 11.3208 16.084 11.4113 16.1673 11.5017C16.1673 11.6826 16.1673 11.7731 16.1673 11.8635Z" fill="#F5AE22"/>
<path d="M16.9173 13.8535C16.9173 13.9439 16.9173 14.0344 16.9173 14.1248C16.9173 14.2153 16.834 14.3058 16.7507 14.3962C16.6673 14.3962 16.584 14.3057 16.584 14.2153C16.584 14.0344 16.584 13.8535 16.584 13.6726C16.584 13.5821 16.6673 13.4917 16.7507 13.4917C16.834 13.4917 16.834 13.6726 16.9173 13.763C16.9173 13.6726 16.9173 13.763 16.9173 13.8535Z" fill="#F5AE22"/>
<path d="M16.9173 11.8644C16.9173 11.9548 16.9173 12.0453 16.9173 12.1357C16.9173 12.2262 16.834 12.3166 16.7507 12.3166C16.6673 12.3166 16.584 12.2262 16.584 12.1357C16.584 11.9548 16.584 11.7739 16.584 11.593C16.584 11.5026 16.6673 11.4121 16.7507 11.4121C16.834 11.4121 16.834 11.593 16.9173 11.6835C16.9173 11.6835 16.9173 11.7739 16.9173 11.8644Z" fill="#F5AE22"/>
<path d="M17.5001 12.4072H19.8335L22.0002 21H2L4.50002 12.4072H7.33339" stroke="#F5AE22" stroke-miterlimit="10"/>
</svg>
